<svg xmlns="http://www.w3.org/2000/svg" xmlns:xlink="http://www.w3.org/1999/xlink" width="48" zoomAndPan="magnify" viewBox="0 0 36 36.000001" height="48" preserveAspectRatio="xMidYMid meet" version="1.0"><defs><clipPath id="f044427f1b"><path d="M 1.507812 0.617188 L 34.34375 0.617188 L 34.34375 34.1875 L 1.507812 34.1875 Z M 1.507812 0.617188 " clip-rule="nonzero"/></clipPath></defs><g clip-path="url(#f044427f1b)"><path fill="#545454" d="M 21.058594 0.664062 C 20.730469 0.703125 20.511719 0.753906 20.28125 0.875 L 19.957031 1.027344 L 19.070312 0.976562 C 17.914062 0.898438 17.507812 0.925781 17.128906 1.097656 C 16.542969 1.367188 16.351562 1.636719 15.871094 2.808594 C 15.734375 3.148438 15.605469 3.441406 15.589844 3.464844 C 15.566406 3.484375 15.347656 3.527344 15.09375 3.5625 C 13.96875 3.710938 12.6875 4.023438 11.660156 4.398438 C 10.824219 4.707031 9.371094 5.449219 8.589844 5.96875 C 4.613281 8.613281 2.109375 12.65625 1.570312 17.265625 C 1.460938 18.203125 1.488281 20.234375 1.625 21.125 C 2.101562 24.308594 3.53125 27.222656 5.742188 29.488281 C 7.214844 31.003906 8.671875 32.0625 10.429688 32.90625 C 12.40625 33.855469 14.320312 34.316406 16.542969 34.390625 C 20.210938 34.519531 23.6875 33.355469 26.597656 31.027344 C 29.757812 28.488281 31.894531 24.664062 32.351562 20.703125 L 32.417969 20.125 L 32.753906 20.097656 C 33.417969 20.050781 34.039062 19.609375 34.320312 19.007812 C 34.496094 18.617188 34.523438 18.179688 34.449219 16.835938 C 34.320312 14.546875 34.238281 14.160156 33.640625 13.171875 C 33.261719 12.535156 32.945312 11.796875 32.535156 10.585938 C 32.40625 10.210938 32.222656 9.761719 32.132812 9.597656 L 31.972656 9.289062 L 32.261719 8.988281 C 32.863281 8.371094 32.835938 8.199219 32.035156 7.421875 C 31.292969 6.695312 31.042969 6.644531 30.53125 7.140625 L 30.230469 7.429688 L 29.648438 7.140625 C 29.15625 6.898438 28.972656 6.765625 28.371094 6.226562 C 27.871094 5.773438 27.617188 5.507812 27.484375 5.273438 C 27.378906 5.097656 27.207031 4.839844 27.105469 4.707031 C 27.003906 4.570312 26.917969 4.4375 26.917969 4.410156 C 26.917969 4.386719 26.992188 4.265625 27.078125 4.140625 C 27.375 3.734375 27.292969 3.46875 26.714844 3.035156 C 25.644531 2.21875 25.382812 2.179688 24.984375 2.804688 L 24.898438 2.925781 L 24.488281 2.78125 L 24.082031 2.636719 L 23.832031 2.109375 C 23.503906 1.417969 23.253906 1.097656 22.855469 0.890625 C 22.328125 0.609375 21.988281 0.570312 21.058594 0.664062 Z M 22.246094 2.0625 C 22.371094 2.148438 22.511719 2.382812 22.78125 2.949219 C 22.984375 3.371094 23.183594 3.734375 23.21875 3.742188 C 24.371094 4.085938 24.316406 4.054688 25.167969 4.726562 C 25.984375 5.371094 26.15625 5.554688 26.445312 6.101562 C 26.535156 6.273438 26.699219 6.488281 26.804688 6.582031 C 26.914062 6.671875 27.292969 7.011719 27.65625 7.332031 C 28.199219 7.824219 28.40625 7.972656 28.859375 8.195312 C 29.371094 8.445312 29.445312 8.503906 30.085938 9.15625 C 30.835938 9.933594 31.117188 10.339844 31.277344 10.898438 C 31.34375 11.101562 31.546875 11.667969 31.734375 12.140625 C 31.921875 12.617188 32.078125 13.03125 32.078125 13.054688 C 32.078125 13.078125 32.234375 13.355469 32.429688 13.660156 C 32.9375 14.476562 32.992188 14.648438 33.074219 15.789062 C 33.21875 17.757812 33.230469 18.253906 33.125 18.464844 C 33.074219 18.582031 32.964844 18.691406 32.839844 18.75 C 32.652344 18.835938 32.617188 18.835938 32.210938 18.753906 C 31.476562 18.605469 30.078125 18.1875 29.714844 18.007812 C 29.273438 17.792969 28.671875 17.203125 28.464844 16.773438 C 28.234375 16.304688 28.136719 15.804688 28.175781 15.316406 C 28.207031 14.863281 28.160156 14.6875 27.785156 13.871094 C 27.632812 13.542969 27.578125 13.484375 27.242188 13.257812 C 27.035156 13.121094 26.769531 12.898438 26.648438 12.761719 C 26.355469 12.417969 26.03125 11.769531 25.949219 11.339844 L 25.886719 10.984375 L 25.046875 10.246094 C 24.21875 9.511719 24.210938 9.503906 23.886719 9.460938 C 23.046875 9.347656 22.4375 9.046875 21.730469 8.382812 C 21.265625 7.945312 20.941406 7.5 20.722656 6.96875 C 20.421875 6.253906 20.402344 6.125 20.378906 4.328125 C 20.351562 2.710938 20.355469 2.640625 20.464844 2.421875 C 20.609375 2.121094 20.726562 2.054688 21.273438 1.96875 C 21.828125 1.890625 22.03125 1.90625 22.246094 2.0625 Z M 18.6875 2.269531 L 19.097656 2.269531 L 19.078125 2.925781 C 19.070312 3.292969 19.054688 3.59375 19.050781 3.597656 C 19.042969 3.605469 18.882812 3.585938 18.695312 3.5625 C 18.5 3.535156 18.050781 3.492188 17.695312 3.476562 L 17.042969 3.4375 L 17.226562 2.984375 C 17.324219 2.738281 17.4375 2.484375 17.476562 2.425781 C 17.566406 2.28125 17.769531 2.21875 18.042969 2.242188 C 18.171875 2.261719 18.464844 2.269531 18.6875 2.269531 Z M 25.972656 3.566406 L 26.257812 3.792969 L 26.121094 3.992188 L 25.988281 4.195312 L 25.714844 3.980469 C 25.5625 3.863281 25.433594 3.742188 25.425781 3.714844 C 25.40625 3.671875 25.625 3.347656 25.671875 3.347656 C 25.683594 3.347656 25.816406 3.449219 25.972656 3.566406 Z M 18.34375 4.851562 C 19.128906 4.941406 19.050781 4.867188 19.09375 5.578125 C 19.128906 6.210938 19.308594 7.058594 19.472656 7.375 C 19.523438 7.46875 19.550781 7.558594 19.539062 7.574219 C 19.523438 7.585938 19.414062 7.570312 19.296875 7.542969 C 18.8125 7.410156 17.871094 7.316406 17.035156 7.316406 L 16.152344 7.3125 L 12.832031 5.421875 L 13.023438 5.351562 C 13.546875 5.171875 14.832031 4.914062 15.632812 4.835938 C 16.066406 4.785156 17.898438 4.800781 18.34375 4.851562 Z M 13.550781 6.523438 C 14.382812 7 15.070312 7.398438 15.082031 7.402344 C 15.089844 7.410156 14.863281 7.46875 14.570312 7.539062 C 13.105469 7.871094 11.75 8.453125 10.546875 9.261719 C 10.117188 9.554688 9.460938 10.070312 9.179688 10.332031 C 8.992188 10.515625 8.988281 10.515625 7.234375 10.824219 C 6.273438 10.988281 5.417969 11.140625 5.34375 11.160156 C 5.269531 11.175781 5.203125 11.171875 5.203125 11.144531 C 5.203125 11.070312 5.882812 10.1875 6.371094 9.625 C 7.519531 8.300781 9.007812 7.136719 10.550781 6.34375 C 11.058594 6.082031 11.921875 5.683594 12.019531 5.664062 C 12.03125 5.65625 12.71875 6.050781 13.550781 6.523438 Z M 31.449219 8.066406 L 31.707031 8.316406 L 31.421875 8.628906 L 31.144531 8.9375 L 30.574219 8.375 L 30.851562 8.09375 C 31.007812 7.9375 31.148438 7.808594 31.164062 7.808594 C 31.179688 7.8125 31.308594 7.925781 31.449219 8.066406 Z M 18.480469 8.726562 C 19.511719 8.867188 20.710938 9.261719 21.128906 9.609375 C 21.585938 9.976562 22.058594 10.261719 22.472656 10.414062 C 23.101562 10.644531 23.269531 10.742188 23.726562 11.15625 C 24.21875 11.597656 24.867188 12.289062 24.941406 12.457031 C 24.984375 12.554688 24.847656 12.898438 24.226562 14.316406 C 23.804688 15.273438 23.417969 16.164062 23.359375 16.292969 L 23.261719 16.53125 L 23.023438 16.03125 C 22.886719 15.757812 22.632812 15.320312 22.457031 15.0625 C 22.109375 14.550781 21.257812 13.691406 20.800781 13.386719 C 20.542969 13.214844 20.359375 12.96875 19.007812 10.972656 C 18.179688 9.753906 17.492188 8.71875 17.476562 8.683594 C 17.441406 8.609375 17.628906 8.613281 18.480469 8.726562 Z M 17.0625 10.46875 C 17.722656 11.441406 18.265625 12.257812 18.265625 12.273438 C 18.265625 12.296875 18.152344 12.285156 18.011719 12.257812 C 17.300781 12.105469 15.796875 12.214844 15.023438 12.460938 C 14.777344 12.542969 14.710938 12.535156 12.980469 12.269531 C 11.996094 12.117188 10.859375 11.933594 10.449219 11.875 C 10.035156 11.8125 9.695312 11.730469 9.695312 11.703125 C 9.695312 11.671875 9.929688 11.449219 10.207031 11.203125 C 11.703125 9.886719 13.511719 9.03125 15.523438 8.703125 C 15.828125 8.652344 15.835938 8.65625 17.0625 10.46875 Z M 8.113281 11.390625 C 7.363281 12.359375 6.886719 13.121094 6.441406 14.046875 C 5.5625 15.871094 5.148438 18.144531 5.363281 19.988281 L 5.414062 20.425781 L 5.183594 20.953125 C 5.054688 21.25 4.726562 21.980469 4.453125 22.589844 C 4.175781 23.195312 3.917969 23.777344 3.875 23.878906 L 3.796875 24.0625 L 3.726562 23.933594 C 3.597656 23.683594 3.273438 22.648438 3.140625 22.039062 C 2.890625 20.941406 2.816406 20.183594 2.824219 18.933594 C 2.824219 17.34375 3.011719 16.144531 3.46875 14.714844 C 3.859375 13.5 4.628906 11.914062 4.847656 11.863281 C 4.914062 11.847656 5.503906 11.742188 6.171875 11.628906 C 7.292969 11.429688 8.160156 11.269531 8.203125 11.253906 C 8.214844 11.253906 8.171875 11.3125 8.113281 11.390625 Z M 9.972656 13.148438 C 10.675781 13.25 11.574219 13.386719 11.972656 13.445312 C 12.367188 13.507812 12.710938 13.558594 12.738281 13.558594 C 12.765625 13.558594 12.574219 13.769531 12.308594 14.027344 C 11.796875 14.535156 11.367188 15.085938 11.019531 15.679688 C 10.894531 15.886719 10.71875 16.121094 10.621094 16.195312 C 10.523438 16.273438 9.679688 16.921875 8.75 17.644531 C 7.820312 18.363281 6.960938 19.023438 6.847656 19.109375 L 6.640625 19.277344 L 6.671875 18.449219 C 6.726562 17.066406 7.089844 15.675781 7.734375 14.417969 C 8.09375 13.707031 8.558594 12.96875 8.644531 12.96875 C 8.671875 12.96875 9.273438 13.046875 9.972656 13.148438 Z M 17.835938 13.585938 C 19.042969 13.800781 19.984375 14.300781 20.828125 15.1875 C 21.300781 15.679688 21.484375 15.957031 21.785156 16.578125 C 22.117188 17.273438 22.246094 17.800781 22.28125 18.601562 C 22.3125 19.351562 22.246094 19.878906 22.042969 20.488281 C 21.445312 22.269531 20.15625 23.523438 18.34375 24.078125 C 17.898438 24.210938 17.792969 24.222656 16.949219 24.222656 C 16.179688 24.222656 15.96875 24.199219 15.621094 24.105469 C 14.554688 23.8125 13.878906 23.414062 13.105469 22.640625 C 12.425781 21.964844 12.082031 21.421875 11.78125 20.535156 L 11.578125 19.925781 L 11.578125 18.933594 C 11.578125 18.007812 11.589844 17.90625 11.722656 17.476562 C 11.921875 16.824219 12.09375 16.460938 12.433594 15.949219 C 12.933594 15.191406 13.722656 14.5 14.523438 14.105469 C 15.632812 13.5625 16.734375 13.390625 17.835938 13.585938 Z M 26.273438 14.476562 C 26.570312 15.0625 26.886719 15.929688 26.945312 16.328125 C 27 16.714844 27.25 17.363281 27.476562 17.722656 C 28.074219 18.652344 28.890625 19.191406 30.332031 19.609375 C 30.71875 19.71875 31.050781 19.824219 31.074219 19.847656 C 31.117188 19.882812 31.007812 20.882812 30.953125 20.960938 C 30.878906 21.0625 27.902344 23.125 27.832031 23.125 C 27.8125 23.125 27.859375 22.941406 27.949219 22.71875 C 28.261719 21.910156 28.492188 20.851562 28.605469 19.675781 L 28.636719 19.375 L 28.414062 19.335938 C 28.222656 19.304688 27.683594 19.132812 27.398438 19.019531 C 27.320312 18.988281 27.304688 19.0625 27.277344 19.589844 C 27.21875 20.605469 26.933594 21.765625 26.5 22.8125 L 26.300781 23.277344 L 25.816406 23.308594 C 24.898438 23.363281 21.910156 23.453125 21.882812 23.425781 C 21.867188 23.410156 21.957031 23.277344 22.085938 23.132812 C 22.960938 22.125 23.632812 20.410156 23.640625 19.148438 C 23.640625 18.960938 23.726562 18.710938 24.011719 18.101562 C 24.214844 17.652344 24.699219 16.558594 25.089844 15.65625 C 25.484375 14.75 25.828125 13.972656 25.855469 13.914062 C 25.917969 13.789062 25.925781 13.789062 26.273438 14.476562 Z M 10.203125 18.9375 C 10.203125 19.605469 10.335938 20.5625 10.464844 20.808594 C 10.492188 20.855469 10.472656 21.09375 10.410156 21.378906 C 10.359375 21.640625 10.144531 22.753906 9.929688 23.851562 C 9.71875 24.941406 9.53125 25.871094 9.507812 25.910156 C 9.464844 25.984375 9.164062 25.65625 8.679688 25.023438 C 7.875 23.964844 7.1875 22.507812 6.898438 21.226562 C 6.847656 21.03125 6.828125 20.839844 6.84375 20.8125 C 6.859375 20.789062 7.484375 20.296875 8.230469 19.722656 C 8.972656 19.148438 9.707031 18.578125 9.851562 18.460938 C 10.003906 18.335938 10.136719 18.238281 10.164062 18.234375 C 10.1875 18.234375 10.203125 18.550781 10.203125 18.9375 Z M 6.074219 23.042969 C 6.300781 23.621094 6.691406 24.410156 6.992188 24.894531 C 7.585938 25.851562 8.605469 27.050781 9.351562 27.671875 L 9.605469 27.882812 L 10.175781 29.683594 C 10.492188 30.671875 10.765625 31.515625 10.78125 31.558594 C 10.820312 31.667969 9.988281 31.210938 9.289062 30.742188 C 7.148438 29.316406 5.519531 27.539062 4.355469 25.335938 C 4.125 24.90625 4.113281 24.878906 4.183594 24.691406 C 4.261719 24.457031 5.042969 22.707031 5.363281 22.027344 L 5.597656 21.546875 L 5.742188 22.054688 C 5.820312 22.335938 5.972656 22.78125 6.074219 23.042969 Z M 30.6875 22.410156 C 30.476562 23.234375 30.078125 24.292969 29.660156 25.140625 C 28.289062 27.929688 25.992188 30.242188 23.1875 31.65625 L 22.710938 31.898438 L 21.46875 31.316406 C 20.785156 31 20.039062 30.644531 19.808594 30.539062 L 19.382812 30.332031 L 19.621094 30.28125 C 21.855469 29.726562 24 28.429688 25.613281 26.65625 C 26.105469 26.113281 26.800781 25.167969 27.089844 24.648438 L 27.304688 24.253906 L 28.441406 23.480469 C 29.070312 23.054688 29.84375 22.523438 30.171875 22.296875 C 30.492188 22.070312 30.765625 21.910156 30.777344 21.9375 C 30.789062 21.964844 30.746094 22.175781 30.6875 22.410156 Z M 11.988281 23.421875 C 12.730469 24.195312 13.625 24.820312 14.4375 25.125 C 14.769531 25.25 14.804688 25.28125 16.480469 27.101562 C 17.414062 28.117188 18.222656 28.996094 18.277344 29.042969 C 18.355469 29.128906 18.355469 29.140625 18.25 29.167969 C 18.183594 29.183594 17.839844 29.210938 17.484375 29.230469 C 16.347656 29.296875 14.996094 29.101562 13.777344 28.710938 C 12.917969 28.425781 11.394531 27.628906 10.859375 27.171875 L 10.675781 27.023438 L 11.058594 25.015625 C 11.265625 23.914062 11.4375 22.992188 11.4375 22.964844 C 11.4375 22.863281 11.496094 22.910156 11.988281 23.421875 Z M 25.113281 25.207031 C 23.902344 26.753906 22.125 28.050781 20.367188 28.667969 C 19.941406 28.8125 19.859375 28.828125 19.800781 28.765625 C 19.765625 28.722656 19.324219 28.242188 18.824219 27.695312 C 18.324219 27.144531 17.691406 26.453125 17.421875 26.15625 L 16.925781 25.613281 L 17.394531 25.582031 C 18.199219 25.523438 18.9375 25.328125 19.710938 24.972656 C 20.097656 24.796875 20.125 24.792969 20.867188 24.785156 C 21.285156 24.78125 22.472656 24.753906 23.503906 24.714844 C 24.542969 24.683594 25.40625 24.671875 25.433594 24.695312 C 25.460938 24.714844 25.316406 24.941406 25.113281 25.207031 Z M 11.417969 29.109375 C 13.210938 30.125 15.710938 30.699219 17.648438 30.542969 L 18.292969 30.488281 L 20.082031 31.332031 C 21.066406 31.796875 21.851562 32.191406 21.828125 32.214844 C 21.6875 32.34375 20.1875 32.742188 19.207031 32.914062 C 18.382812 33.058594 16.554688 33.113281 15.675781 33.019531 C 14.484375 32.898438 13.082031 32.570312 12.058594 32.175781 L 11.550781 31.984375 L 11.007812 30.324219 C 10.714844 29.414062 10.453125 28.628906 10.4375 28.582031 C 10.410156 28.523438 10.496094 28.554688 10.691406 28.679688 C 10.851562 28.78125 11.175781 28.972656 11.417969 29.109375 Z M 11.417969 29.109375 " fill-opacity="1" fill-rule="nonzero"/></g><path fill="#545454" d="M 21.109375 2.285156 C 20.746094 2.527344 20.695312 3.082031 21.011719 3.394531 C 21.457031 3.84375 22.242188 3.527344 22.242188 2.894531 C 22.242188 2.304688 21.597656 1.960938 21.109375 2.285156 Z M 21.109375 2.285156 " fill-opacity="1" fill-rule="nonzero"/><path fill="#545454" d="M 23.074219 5.300781 C 22.566406 5.539062 22.1875 6.125 22.1875 6.679688 C 22.1875 7.695312 23.246094 8.441406 24.199219 8.101562 C 24.386719 8.039062 24.425781 8.039062 24.527344 8.117188 C 24.585938 8.167969 25.21875 8.710938 25.933594 9.324219 L 27.230469 10.433594 L 27.15625 10.640625 C 26.941406 11.246094 27.230469 12.019531 27.804688 12.375 C 27.90625 12.441406 28.136719 12.519531 28.320312 12.558594 L 28.660156 12.628906 L 29.078125 13.644531 L 29.5 14.660156 L 29.351562 14.929688 C 29.246094 15.128906 29.203125 15.289062 29.1875 15.601562 C 29.164062 15.976562 29.175781 16.023438 29.347656 16.351562 C 29.800781 17.230469 30.902344 17.421875 31.6875 16.761719 C 31.929688 16.558594 32.136719 16.121094 32.167969 15.765625 C 32.230469 15.136719 31.917969 14.585938 31.351562 14.304688 C 31.035156 14.148438 30.976562 14.136719 30.578125 14.15625 L 30.148438 14.175781 L 29.777344 13.277344 L 29.40625 12.382812 L 29.660156 12.117188 C 29.980469 11.777344 30.117188 11.417969 30.078125 10.957031 C 30.046875 10.570312 29.9375 10.332031 29.664062 10.046875 C 29.347656 9.710938 29.105469 9.609375 28.613281 9.609375 C 28.277344 9.609375 28.128906 9.632812 27.949219 9.71875 L 27.726562 9.839844 L 26.847656 9.074219 C 26.371094 8.660156 25.753906 8.128906 25.484375 7.894531 L 24.988281 7.472656 L 25.082031 7.300781 C 25.144531 7.183594 25.171875 7.007812 25.171875 6.679688 C 25.171875 6.269531 25.15625 6.1875 25.011719 5.925781 C 24.832031 5.601562 24.496094 5.3125 24.1875 5.226562 C 23.839844 5.128906 23.371094 5.164062 23.074219 5.300781 Z M 23.988281 6 C 24.230469 6.101562 24.390625 6.371094 24.390625 6.667969 C 24.390625 7.097656 24.117188 7.375 23.695312 7.375 C 23.273438 7.375 22.996094 7.097656 22.996094 6.679688 C 22.996094 6.382812 23.117188 6.164062 23.359375 6.039062 C 23.601562 5.910156 23.746094 5.898438 23.988281 6 Z M 28.890625 10.433594 C 29.585938 10.753906 29.347656 11.800781 28.578125 11.800781 C 28.175781 11.800781 27.886719 11.496094 27.886719 11.0625 C 27.886719 10.871094 27.917969 10.785156 28.050781 10.628906 C 28.199219 10.46875 28.417969 10.355469 28.613281 10.339844 C 28.644531 10.339844 28.765625 10.382812 28.890625 10.433594 Z M 30.980469 14.988281 C 31.660156 15.308594 31.410156 16.351562 30.652344 16.351562 C 29.914062 16.351562 29.703125 15.273438 30.378906 14.976562 C 30.601562 14.878906 30.761719 14.886719 30.980469 14.988281 Z M 30.980469 14.988281 " fill-opacity="1" fill-rule="nonzero"/><path fill="#545454" d="M 17.539062 14.117188 C 17.207031 14.261719 16.921875 14.757812 16.921875 15.191406 C 16.921875 15.242188 16.804688 15.273438 16.5625 15.300781 C 16.355469 15.316406 16.136719 15.347656 16.0625 15.363281 C 15.9375 15.390625 15.925781 15.375 15.914062 15.175781 C 15.878906 14.535156 15.253906 14.15625 14.636719 14.390625 C 14.292969 14.519531 14.109375 14.773438 14.082031 15.164062 C 14.054688 15.53125 14.140625 15.742188 14.410156 15.957031 L 14.59375 16.09375 L 14.375 16.300781 C 14.25 16.414062 14.035156 16.6875 13.890625 16.90625 L 13.625 17.304688 L 13.40625 17.1875 C 12.960938 16.9375 12.566406 16.972656 12.21875 17.273438 C 11.992188 17.472656 11.9375 17.636719 11.894531 18.316406 C 11.867188 18.804688 11.875 18.875 11.988281 19.09375 C 12.195312 19.503906 12.652344 19.722656 13.152344 19.652344 L 13.410156 19.621094 L 13.449219 19.796875 C 13.46875 19.902344 13.539062 20.121094 13.609375 20.289062 L 13.738281 20.59375 L 13.5625 20.703125 C 13.289062 20.863281 13.09375 21.160156 13.0625 21.453125 C 13.023438 21.855469 13.125 22.066406 13.59375 22.566406 C 13.824219 22.8125 14.019531 23.039062 14.019531 23.066406 C 14.019531 23.097656 14.109375 23.183594 14.21875 23.261719 C 14.59375 23.511719 15.179688 23.414062 15.496094 23.039062 L 15.605469 22.914062 L 16.035156 23.019531 C 16.269531 23.078125 16.539062 23.125 16.636719 23.125 C 16.867188 23.125 17.082031 23.210938 17.082031 23.304688 C 17.082031 23.433594 17.296875 23.65625 17.519531 23.769531 C 17.882812 23.957031 18.398438 23.871094 18.628906 23.585938 C 18.679688 23.523438 18.871094 23.394531 19.050781 23.304688 C 19.773438 22.941406 20.023438 22.605469 19.96875 22.0625 C 19.945312 21.882812 19.894531 21.703125 19.828125 21.613281 C 19.699219 21.441406 19.695312 21.394531 19.769531 21.320312 C 19.8125 21.277344 19.882812 21.3125 20.007812 21.4375 C 20.570312 22.003906 21.542969 21.59375 21.542969 20.789062 C 21.542969 20.523438 21.488281 20.375 21.316406 20.183594 C 21.222656 20.082031 21.214844 20.046875 21.273438 19.890625 C 21.308594 19.792969 21.351562 19.421875 21.367188 19.066406 C 21.394531 18.453125 21.402344 18.410156 21.550781 18.246094 C 21.738281 18.035156 21.78125 17.878906 21.746094 17.539062 C 21.714844 17.214844 21.539062 16.960938 21.253906 16.832031 C 20.878906 16.660156 20.46875 16.730469 20.195312 17.003906 L 20.074219 17.121094 L 19.988281 17.003906 C 19.941406 16.9375 19.800781 16.75 19.671875 16.589844 L 19.441406 16.300781 L 19.625 16.078125 C 19.808594 15.871094 19.953125 15.472656 19.910156 15.320312 C 19.898438 15.285156 19.871094 15.179688 19.851562 15.089844 C 19.816406 14.941406 19.230469 14.3125 18.953125 14.128906 C 18.792969 14.027344 17.777344 14.015625 17.539062 14.117188 Z M 18.878906 14.636719 C 19.121094 14.929688 19.039062 15.300781 18.699219 15.4375 C 18.367188 15.574219 17.996094 15.332031 17.996094 14.984375 C 17.996094 14.519531 18.585938 14.289062 18.878906 14.636719 Z M 15.25 14.820312 C 15.5625 14.984375 15.589844 15.386719 15.296875 15.628906 C 15.105469 15.792969 14.890625 15.800781 14.695312 15.648438 C 14.492188 15.488281 14.433594 15.304688 14.507812 15.078125 C 14.605469 14.785156 14.941406 14.660156 15.25 14.820312 Z M 17.59375 16.164062 C 18.257812 16.34375 18.84375 16.757812 19.226562 17.324219 C 19.78125 18.148438 19.816406 19.320312 19.328125 20.238281 C 18.472656 21.839844 16.234375 22.15625 14.9375 20.863281 C 14.394531 20.320312 14.125 19.664062 14.125 18.875 C 14.125 17.878906 14.605469 16.992188 15.398438 16.515625 C 16.078125 16.105469 16.867188 15.976562 17.59375 16.164062 Z M 21.117188 17.214844 C 21.238281 17.277344 21.382812 17.535156 21.382812 17.691406 C 21.382812 17.84375 21.140625 18.109375 20.96875 18.144531 C 20.78125 18.179688 20.496094 18.0625 20.421875 17.921875 C 20.179688 17.464844 20.667969 16.972656 21.117188 17.214844 Z M 13.109375 17.507812 C 13.40625 17.664062 13.460938 18.046875 13.21875 18.292969 C 13.007812 18.496094 12.75 18.503906 12.519531 18.308594 C 12.390625 18.203125 12.351562 18.125 12.351562 17.972656 C 12.351562 17.539062 12.730469 17.316406 13.109375 17.507812 Z M 20.894531 20.351562 C 21.039062 20.425781 21.167969 20.636719 21.167969 20.792969 C 21.167969 20.941406 21.015625 21.167969 20.871094 21.234375 C 20.644531 21.335938 20.472656 21.308594 20.300781 21.140625 C 20.074219 20.917969 20.082031 20.609375 20.3125 20.417969 C 20.496094 20.261719 20.671875 20.238281 20.894531 20.351562 Z M 15.113281 22.132812 C 15.398438 22.394531 15.25 22.894531 14.851562 22.996094 C 14.660156 23.042969 14.351562 22.894531 14.289062 22.71875 C 14.195312 22.480469 14.226562 22.320312 14.390625 22.152344 C 14.597656 21.949219 14.90625 21.9375 15.113281 22.132812 Z M 18.15625 22.507812 C 18.613281 22.742188 18.464844 23.449219 17.957031 23.449219 C 17.714844 23.449219 17.585938 23.371094 17.480469 23.175781 C 17.378906 22.976562 17.421875 22.75 17.582031 22.605469 C 17.792969 22.410156 17.929688 22.390625 18.15625 22.507812 Z M 18.15625 22.507812 " fill-opacity="1" fill-rule="nonzero"/></svg>