<svg xmlns="http://www.w3.org/2000/svg" xmlns:xlink="http://www.w3.org/1999/xlink" width="48" zoomAndPan="magnify" viewBox="0 0 36 36.000001" height="48" preserveAspectRatio="xMidYMid meet" version="1.0"><defs><clipPath id="27d6f9e610"><path d="M 1.253906 0.765625 L 34.820312 0.765625 L 34.820312 34.332031 L 1.253906 34.332031 Z M 1.253906 0.765625 " clip-rule="nonzero"/></clipPath></defs><g clip-path="url(#27d6f9e610)"><path fill="#545454" d="M 31.847656 0.765625 C 32.617188 0.765625 33.351562 1.070312 33.894531 1.613281 C 34.4375 2.15625 34.742188 2.890625 34.742188 3.65625 L 34.742188 31.363281 C 34.742188 32.128906 34.4375 32.863281 33.894531 33.40625 C 33.351562 33.949219 32.617188 34.253906 31.847656 34.253906 L 4.144531 34.253906 C 3.378906 34.253906 2.640625 33.949219 2.101562 33.40625 C 1.558594 32.863281 1.253906 32.128906 1.253906 31.363281 L 1.253906 3.65625 C 1.253906 2.890625 1.558594 2.15625 2.101562 1.613281 C 2.640625 1.070312 3.378906 0.765625 4.144531 0.765625 Z M 31.847656 1.847656 L 4.144531 1.847656 C 3.664062 1.847656 3.203125 2.039062 2.863281 2.378906 C 2.523438 2.71875 2.332031 3.175781 2.332031 3.65625 L 2.332031 31.363281 C 2.332031 31.84375 2.523438 32.304688 2.863281 32.644531 C 3.203125 32.984375 3.664062 33.171875 4.144531 33.171875 L 31.847656 33.171875 C 32.328125 33.171875 32.789062 32.984375 33.128906 32.644531 C 33.46875 32.304688 33.660156 31.84375 33.660156 31.363281 L 33.660156 3.65625 C 33.660156 3.175781 33.46875 2.71875 33.128906 2.378906 C 32.789062 2.039062 32.328125 1.847656 31.847656 1.847656 Z M 31.070312 2.894531 C 31.921875 2.894531 32.613281 3.585938 32.613281 4.4375 L 32.613281 30.582031 C 32.613281 31.433594 31.921875 32.125 31.070312 32.125 L 4.925781 32.125 C 4.074219 32.125 3.382812 31.433594 3.382812 30.582031 L 3.382812 4.4375 C 3.382812 3.585938 4.074219 2.894531 4.925781 2.894531 Z M 31.070312 3.976562 L 4.925781 3.976562 C 4.667969 3.976562 4.460938 4.183594 4.460938 4.4375 L 4.460938 30.582031 C 4.460938 30.835938 4.667969 31.042969 4.925781 31.042969 L 31.070312 31.042969 C 31.324219 31.042969 31.53125 30.835938 31.53125 30.582031 L 31.53125 4.4375 C 31.53125 4.183594 31.324219 3.976562 31.070312 3.976562 Z M 7.324219 26.625 C 8.285156 26.625 9.0625 27.402344 9.0625 28.359375 C 9.0625 29.316406 8.285156 30.09375 7.324219 30.09375 C 6.367188 30.09375 5.589844 29.316406 5.589844 28.359375 C 5.589844 27.402344 6.367188 26.625 7.324219 26.625 Z M 7.324219 27.703125 C 6.964844 27.703125 6.671875 28 6.671875 28.359375 C 6.671875 28.722656 6.964844 29.015625 7.324219 29.015625 C 7.6875 29.015625 7.980469 28.722656 7.980469 28.359375 C 7.980469 28 7.6875 27.703125 7.324219 27.703125 Z M 17.996094 28.898438 C 11.710938 28.898438 6.605469 23.796875 6.605469 17.511719 C 6.605469 11.222656 11.710938 6.121094 17.996094 6.121094 C 24.28125 6.121094 29.386719 11.222656 29.386719 17.511719 C 29.386719 23.796875 24.28125 28.898438 17.996094 28.898438 Z M 19.117188 21.554688 C 20.195312 21.257812 21.101562 20.539062 21.644531 19.589844 C 21.1875 19.238281 20.53125 18.96875 19.542969 18.832031 C 19.328125 19.082031 19.054688 19.28125 18.742188 19.402344 C 19.054688 20.261719 19.152344 20.964844 19.117188 21.554688 Z M 22.0625 18.5625 C 22.148438 18.226562 22.195312 17.875 22.195312 17.511719 C 22.195312 16.738281 21.984375 16.011719 21.621094 15.390625 C 21.085938 15.609375 20.527344 16.042969 19.914062 16.832031 C 19.988281 17.042969 20.03125 17.273438 20.03125 17.511719 C 20.03125 17.613281 20.023438 17.714844 20.007812 17.8125 C 20.910156 17.972656 21.566406 18.238281 22.0625 18.5625 Z M 15.054688 20.503906 C 15.8125 21.25 16.851562 21.707031 17.996094 21.707031 C 18.003906 21.707031 18.011719 21.707031 18.019531 21.707031 C 18.097656 21.136719 18 20.433594 17.625 19.511719 C 17.289062 19.449219 16.984375 19.304688 16.730469 19.101562 C 16.140625 19.800781 15.582031 20.234375 15.054688 20.503906 Z M 16.875 13.464844 C 15.796875 13.761719 14.890625 14.480469 14.347656 15.433594 C 14.804688 15.78125 15.460938 16.050781 16.449219 16.1875 C 16.664062 15.9375 16.941406 15.738281 17.253906 15.617188 C 16.9375 14.757812 16.84375 14.054688 16.875 13.464844 Z M 13.929688 16.457031 C 13.84375 16.792969 13.796875 17.148438 13.796875 17.511719 C 13.796875 18.28125 14.007812 19.007812 14.371094 19.628906 C 14.90625 19.410156 15.464844 18.976562 16.078125 18.1875 C 16.003906 17.976562 15.960938 17.746094 15.960938 17.511719 C 15.960938 17.40625 15.96875 17.308594 15.984375 17.207031 C 15.082031 17.050781 14.429688 16.78125 13.929688 16.457031 Z M 18.273438 27.816406 C 21.605469 27.726562 24.542969 26.058594 26.363281 23.53125 C 25.625 23.527344 25.0625 23.421875 24.621094 23.253906 C 23.011719 25.105469 20.640625 26.277344 17.996094 26.277344 C 17.820312 26.277344 17.644531 26.273438 17.46875 26.261719 C 17.59375 26.695312 17.847656 27.199219 18.273438 27.816406 Z M 9.210938 22.902344 C 10.855469 25.578125 13.6875 27.445312 16.96875 27.769531 C 16.601562 27.128906 16.410156 26.589844 16.335938 26.121094 C 13.625 25.601562 11.355469 23.828125 10.152344 21.429688 C 9.839844 21.753906 9.53125 22.226562 9.210938 22.902344 Z M 17.71875 7.203125 C 14.390625 7.292969 11.449219 8.960938 9.628906 11.492188 C 10.367188 11.492188 10.929688 11.597656 11.371094 11.765625 C 12.980469 9.914062 15.351562 8.742188 17.996094 8.742188 C 18.171875 8.742188 18.351562 8.746094 18.523438 8.757812 C 18.398438 8.328125 18.144531 7.824219 17.71875 7.203125 Z M 17.988281 16.554688 C 17.644531 16.558594 17.339844 16.746094 17.175781 17.027344 C 17.171875 17.03125 17.167969 17.035156 17.167969 17.039062 C 17.085938 17.179688 17.042969 17.339844 17.042969 17.511719 C 17.042969 17.679688 17.085938 17.839844 17.167969 17.980469 C 17.167969 17.984375 17.171875 17.988281 17.175781 17.992188 C 17.339844 18.273438 17.640625 18.460938 17.988281 18.464844 C 17.992188 18.464844 18 18.464844 18.003906 18.464844 C 18.351562 18.460938 18.652344 18.273438 18.820312 17.992188 C 18.820312 17.988281 18.824219 17.984375 18.828125 17.980469 C 18.90625 17.839844 18.949219 17.679688 18.949219 17.511719 C 18.949219 17.339844 18.90625 17.179688 18.828125 17.039062 C 18.824219 17.035156 18.820312 17.03125 18.820312 17.027344 C 18.65625 16.746094 18.351562 16.558594 18.003906 16.554688 C 18 16.554688 17.996094 16.554688 17.988281 16.554688 Z M 8.933594 12.597656 C 8.136719 14.058594 7.6875 15.730469 7.6875 17.511719 C 7.6875 19.019531 8.011719 20.457031 8.597656 21.75 C 8.96875 21.113281 9.339844 20.675781 9.707031 20.378906 C 9.398438 19.476562 9.226562 18.515625 9.226562 17.511719 C 9.226562 15.726562 9.761719 14.0625 10.679688 12.675781 C 10.246094 12.570312 9.679688 12.539062 8.933594 12.597656 Z M 11.078125 20.867188 C 12.097656 22.960938 14.039062 24.523438 16.371094 25.027344 C 16.503906 24.480469 16.796875 24.015625 17.125 23.550781 C 17.296875 23.300781 17.484375 23.054688 17.644531 22.777344 C 16.148438 22.679688 14.824219 21.957031 13.925781 20.867188 C 13.332031 20.957031 12.773438 20.898438 12.234375 20.851562 C 11.835938 20.816406 11.457031 20.777344 11.078125 20.867188 Z M 24.363281 21.820312 C 25.195312 20.589844 25.683594 19.105469 25.683594 17.511719 C 25.683594 16.691406 25.554688 15.902344 25.316406 15.160156 C 24.777344 15.320312 24.230469 15.296875 23.664062 15.246094 C 23.363281 15.21875 23.054688 15.179688 22.734375 15.183594 C 23.082031 15.882812 23.273438 16.675781 23.273438 17.511719 C 23.273438 18.160156 23.15625 18.785156 22.941406 19.359375 C 23.3125 19.828125 23.542969 20.339844 23.769531 20.832031 C 23.9375 21.191406 24.09375 21.539062 24.363281 21.820312 Z M 20.9375 14.515625 C 20.179688 13.769531 19.140625 13.3125 17.996094 13.3125 C 17.988281 13.3125 17.980469 13.3125 17.972656 13.3125 C 17.898438 13.882812 17.992188 14.585938 18.367188 15.511719 C 18.703125 15.570312 19.007812 15.714844 19.261719 15.917969 C 19.851562 15.21875 20.410156 14.785156 20.9375 14.515625 Z M 17.445312 25.179688 C 17.628906 25.191406 17.8125 25.199219 17.996094 25.199219 C 20.253906 25.199219 22.285156 24.222656 23.691406 22.671875 C 23.285156 22.285156 23.03125 21.804688 22.789062 21.285156 C 22.664062 21.011719 22.542969 20.726562 22.382812 20.449219 C 21.585938 21.628906 20.328125 22.472656 18.867188 22.71875 C 18.648438 23.273438 18.320312 23.730469 18.007812 24.171875 C 17.777344 24.496094 17.554688 24.808594 17.445312 25.179688 Z M 24.914062 14.152344 C 23.894531 12.058594 21.953125 10.496094 19.621094 9.996094 C 19.492188 10.542969 19.199219 11.003906 18.867188 11.46875 C 18.695312 11.71875 18.507812 11.964844 18.347656 12.242188 C 19.84375 12.34375 21.171875 13.066406 22.070312 14.152344 C 22.660156 14.0625 23.21875 14.121094 23.761719 14.167969 C 24.15625 14.207031 24.539062 14.242188 24.914062 14.152344 Z M 18.546875 9.839844 C 18.367188 9.828125 18.183594 9.820312 17.996094 9.820312 C 15.738281 9.820312 13.710938 10.796875 12.300781 12.347656 C 12.710938 12.734375 12.960938 13.21875 13.203125 13.734375 C 13.328125 14.007812 13.453125 14.296875 13.613281 14.570312 C 14.40625 13.390625 15.664062 12.546875 17.125 12.304688 C 17.34375 11.746094 17.671875 11.289062 17.984375 10.847656 C 18.214844 10.523438 18.4375 10.210938 18.546875 9.839844 Z M 11.632812 13.199219 C 10.796875 14.429688 10.308594 15.914062 10.308594 17.511719 C 10.308594 18.328125 10.4375 19.121094 10.675781 19.859375 C 11.214844 19.699219 11.761719 19.722656 12.332031 19.773438 C 12.632812 19.800781 12.9375 19.839844 13.257812 19.839844 C 12.914062 19.136719 12.71875 18.34375 12.71875 17.511719 C 12.71875 16.859375 12.835938 16.234375 13.050781 15.660156 C 12.679688 15.191406 12.449219 14.679688 12.222656 14.1875 C 12.054688 13.828125 11.898438 13.480469 11.632812 13.199219 Z M 27.0625 22.421875 C 27.855469 20.960938 28.304688 19.289062 28.304688 17.511719 C 28.304688 16 27.980469 14.5625 27.394531 13.269531 C 27.023438 13.910156 26.652344 14.34375 26.285156 14.644531 C 26.597656 15.542969 26.765625 16.507812 26.765625 17.511719 C 26.765625 19.296875 26.230469 20.957031 25.3125 22.34375 C 25.746094 22.453125 26.3125 22.484375 27.0625 22.421875 Z M 26.78125 12.117188 C 25.136719 9.445312 22.304688 7.578125 19.023438 7.25 C 19.390625 7.890625 19.582031 8.433594 19.65625 8.898438 C 22.371094 9.421875 24.640625 11.191406 25.839844 13.589844 C 26.152344 13.269531 26.460938 12.792969 26.78125 12.117188 Z M 28.667969 26.625 C 29.625 26.625 30.402344 27.402344 30.402344 28.359375 C 30.402344 29.316406 29.625 30.09375 28.667969 30.09375 C 27.710938 30.09375 26.933594 29.316406 26.933594 28.359375 C 26.933594 27.402344 27.710938 26.625 28.667969 26.625 Z M 28.667969 27.703125 C 28.304688 27.703125 28.011719 28 28.011719 28.359375 C 28.011719 28.722656 28.304688 29.015625 28.667969 29.015625 C 29.027344 29.015625 29.324219 28.722656 29.324219 28.359375 C 29.324219 28 29.027344 27.703125 28.667969 27.703125 Z M 28.667969 4.925781 C 29.625 4.925781 30.402344 5.703125 30.402344 6.660156 C 30.402344 7.617188 29.625 8.394531 28.667969 8.394531 C 27.710938 8.394531 26.933594 7.617188 26.933594 6.660156 C 26.933594 5.703125 27.710938 4.925781 28.667969 4.925781 Z M 28.667969 6.003906 C 28.304688 6.003906 28.011719 6.296875 28.011719 6.660156 C 28.011719 7.023438 28.304688 7.316406 28.667969 7.316406 C 29.027344 7.316406 29.324219 7.023438 29.324219 6.660156 C 29.324219 6.296875 29.027344 6.003906 28.667969 6.003906 Z M 7.324219 4.925781 C 8.285156 4.925781 9.0625 5.703125 9.0625 6.660156 C 9.0625 7.617188 8.285156 8.394531 7.324219 8.394531 C 6.367188 8.394531 5.589844 7.617188 5.589844 6.660156 C 5.589844 5.703125 6.367188 4.925781 7.324219 4.925781 Z M 7.324219 6.003906 C 6.964844 6.003906 6.671875 6.296875 6.671875 6.660156 C 6.671875 7.023438 6.964844 7.316406 7.324219 7.316406 C 7.6875 7.316406 7.980469 7.023438 7.980469 6.660156 C 7.980469 6.296875 7.6875 6.003906 7.324219 6.003906 Z M 7.324219 6.003906 " fill-opacity="1" fill-rule="evenodd"/></g></svg>