<svg xmlns="http://www.w3.org/2000/svg" xmlns:xlink="http://www.w3.org/1999/xlink" width="48" zoomAndPan="magnify" viewBox="0 0 36 36.000001" height="48" preserveAspectRatio="xMidYMid meet" version="1.0"><defs><clipPath id="9900d9d1bb"><path d="M 3.347656 0 L 32.535156 0 L 32.535156 35.027344 L 3.347656 35.027344 Z M 3.347656 0 " clip-rule="nonzero"/></clipPath></defs><g clip-path="url(#9900d9d1bb)"><path fill="#545454" d="M 8.539062 5.175781 L 8.539062 7.050781 C 8.539062 7.984375 7.777344 8.746094 6.84375 8.746094 L 5.058594 8.746094 C 4.121094 8.746094 3.363281 7.984375 3.363281 7.050781 L 3.363281 1.695312 C 3.363281 0.757812 4.121094 0 5.058594 0 L 6.84375 0 C 7.777344 0 8.539062 0.757812 8.539062 1.695312 L 8.539062 3.570312 L 12.285156 3.570312 L 12.285156 2.589844 C 12.285156 1.652344 13.046875 0.890625 13.980469 0.890625 L 21.121094 0.890625 C 22.058594 0.890625 22.816406 1.652344 22.816406 2.589844 L 22.816406 3.570312 L 27.457031 3.570312 L 27.457031 1.695312 C 27.457031 0.757812 28.214844 0 29.152344 0 L 30.9375 0 C 31.875 0 32.632812 0.757812 32.632812 1.695312 L 32.632812 7.050781 C 32.632812 7.984375 31.875 8.746094 30.9375 8.746094 L 29.152344 8.746094 C 28.214844 8.746094 27.457031 7.984375 27.457031 7.050781 L 27.457031 5.175781 L 22.816406 5.175781 L 22.816406 6.15625 C 22.816406 7.09375 22.058594 7.851562 21.121094 7.851562 L 20.140625 7.851562 L 20.140625 9.726562 C 20.140625 10.664062 19.378906 11.421875 18.445312 11.421875 L 18.355469 11.421875 L 18.355469 27.757812 C 19.628906 28.058594 20.636719 29.066406 20.9375 30.339844 L 27.457031 30.339844 L 27.457031 28.46875 C 27.457031 27.53125 28.214844 26.773438 29.152344 26.773438 L 30.9375 26.773438 C 31.875 26.773438 32.632812 27.53125 32.632812 28.46875 L 32.632812 33.820312 C 32.632812 34.757812 31.875 35.515625 30.9375 35.515625 L 29.152344 35.515625 C 28.214844 35.515625 27.457031 34.757812 27.457031 33.820312 L 27.457031 31.949219 L 20.9375 31.949219 C 20.574219 33.480469 19.195312 34.625 17.550781 34.625 C 15.90625 34.625 14.527344 33.480469 14.164062 31.949219 L 8.539062 31.949219 L 8.539062 33.820312 C 8.539062 34.757812 7.777344 35.515625 6.84375 35.515625 L 5.058594 35.515625 C 4.121094 35.515625 3.363281 34.757812 3.363281 33.820312 L 3.363281 28.46875 C 3.363281 27.53125 4.121094 26.773438 5.058594 26.773438 L 6.84375 26.773438 C 7.777344 26.773438 8.539062 27.53125 8.539062 28.46875 L 8.539062 30.339844 L 14.164062 30.339844 C 14.464844 29.066406 15.472656 28.058594 16.75 27.757812 L 16.75 11.421875 L 16.660156 11.421875 C 15.722656 11.421875 14.964844 10.664062 14.964844 9.726562 L 14.964844 7.851562 L 13.980469 7.851562 C 13.046875 7.851562 12.285156 7.09375 12.285156 6.15625 L 12.285156 5.175781 Z M 6.933594 7.050781 L 6.933594 1.695312 C 6.933594 1.644531 6.890625 1.605469 6.84375 1.605469 L 5.058594 1.605469 C 5.007812 1.605469 4.96875 1.644531 4.96875 1.695312 L 4.96875 7.050781 C 4.96875 7.097656 5.007812 7.140625 5.058594 7.140625 L 6.84375 7.140625 C 6.890625 7.140625 6.933594 7.097656 6.933594 7.050781 Z M 21.210938 6.15625 L 21.210938 2.589844 C 21.210938 2.539062 21.171875 2.5 21.121094 2.5 L 13.980469 2.5 C 13.933594 2.5 13.890625 2.539062 13.890625 2.589844 L 13.890625 6.15625 C 13.890625 6.207031 13.933594 6.246094 13.980469 6.246094 L 21.121094 6.246094 C 21.171875 6.246094 21.210938 6.207031 21.210938 6.15625 Z M 29.0625 1.695312 L 29.0625 7.050781 C 29.0625 7.097656 29.101562 7.140625 29.152344 7.140625 L 30.9375 7.140625 C 30.988281 7.140625 31.027344 7.097656 31.027344 7.050781 L 31.027344 1.695312 C 31.027344 1.644531 30.988281 1.605469 30.9375 1.605469 L 29.152344 1.605469 C 29.101562 1.605469 29.0625 1.644531 29.0625 1.695312 Z M 16.660156 9.816406 L 18.445312 9.816406 C 18.492188 9.816406 18.53125 9.777344 18.53125 9.726562 L 18.53125 7.851562 L 16.570312 7.851562 L 16.570312 9.726562 C 16.570312 9.777344 16.609375 9.816406 16.660156 9.816406 Z M 19.425781 31.144531 C 19.425781 30.109375 18.585938 29.269531 17.550781 29.269531 C 16.515625 29.269531 15.675781 30.109375 15.675781 31.144531 C 15.675781 32.179688 16.515625 33.019531 17.550781 33.019531 C 18.585938 33.019531 19.425781 32.179688 19.425781 31.144531 Z M 29.0625 28.46875 L 29.0625 33.820312 C 29.0625 33.871094 29.101562 33.910156 29.152344 33.910156 L 30.9375 33.910156 C 30.988281 33.910156 31.027344 33.871094 31.027344 33.820312 L 31.027344 28.46875 C 31.027344 28.417969 30.988281 28.378906 30.9375 28.378906 L 29.152344 28.378906 C 29.101562 28.378906 29.0625 28.417969 29.0625 28.46875 Z M 6.933594 33.820312 L 6.933594 28.46875 C 6.933594 28.417969 6.890625 28.378906 6.84375 28.378906 L 5.058594 28.378906 C 5.007812 28.378906 4.96875 28.417969 4.96875 28.46875 L 4.96875 33.820312 C 4.96875 33.871094 5.007812 33.910156 5.058594 33.910156 L 6.84375 33.910156 C 6.890625 33.910156 6.933594 33.871094 6.933594 33.820312 Z M 6.933594 33.820312 " fill-opacity="1" fill-rule="evenodd"/></g></svg>