<svg xmlns="http://www.w3.org/2000/svg" xmlns:xlink="http://www.w3.org/1999/xlink" width="48" zoomAndPan="magnify" viewBox="0 0 36 36.000001" height="48" preserveAspectRatio="xMidYMid meet" version="1.0"><defs><clipPath id="864f092c5c"><path d="M 0.488281 1.578125 L 35.511719 1.578125 L 35.511719 33.683594 L 0.488281 33.683594 Z M 0.488281 1.578125 " clip-rule="nonzero"/></clipPath></defs><path fill="#545454" d="M 12.082031 24.378906 C 12.082031 22.847656 10.824219 21.597656 9.28125 21.597656 C 7.742188 21.597656 6.488281 22.84375 6.488281 24.378906 C 6.488281 25.914062 7.742188 27.160156 9.28125 27.160156 C 10.824219 27.160156 12.082031 25.914062 12.082031 24.378906 Z M 10.257812 24.378906 C 10.257812 24.910156 9.820312 25.34375 9.28125 25.34375 C 8.746094 25.34375 8.308594 24.910156 8.308594 24.378906 C 8.308594 23.847656 8.746094 23.414062 9.28125 23.414062 C 9.820312 23.414062 10.257812 23.847656 10.257812 24.378906 Z M 10.257812 24.378906 " fill-opacity="1" fill-rule="nonzero"/><path fill="#545454" d="M 24.945312 18.726562 C 23.71875 18.726562 22.71875 19.722656 22.71875 20.945312 C 22.71875 22.167969 23.71875 23.164062 24.945312 23.164062 C 26.175781 23.164062 27.179688 22.167969 27.179688 20.945312 C 27.179688 19.722656 26.175781 18.726562 24.945312 18.726562 Z M 25.511719 20.945312 C 25.511719 21.253906 25.257812 21.503906 24.945312 21.503906 C 24.636719 21.503906 24.382812 21.253906 24.382812 20.945312 C 24.382812 20.636719 24.636719 20.386719 24.945312 20.386719 C 25.257812 20.386719 25.511719 20.636719 25.511719 20.945312 Z M 25.511719 20.945312 " fill-opacity="1" fill-rule="nonzero"/><g clip-path="url(#864f092c5c)"><path fill="#545454" d="M 36.234375 12.503906 L 34.160156 9.246094 L 35.25 8.53125 C 35.378906 8.445312 35.417969 8.273438 35.332031 8.144531 L 34.628906 7.035156 L 35.71875 6.316406 C 35.847656 6.234375 35.886719 6.058594 35.800781 5.929688 L 35.117188 4.851562 C 35.078125 4.789062 35.011719 4.742188 34.9375 4.726562 C 34.863281 4.710938 34.785156 4.726562 34.722656 4.769531 L 33.640625 5.480469 L 32.9375 4.375 C 32.898438 4.3125 32.832031 4.265625 32.757812 4.25 C 32.683594 4.234375 32.605469 4.25 32.542969 4.292969 L 31.460938 5.003906 L 29.390625 1.746094 C 29.347656 1.683594 29.285156 1.636719 29.210938 1.621094 C 29.136719 1.605469 29.058594 1.621094 28.996094 1.664062 L 26.878906 3.054688 C 26.746094 3.140625 26.710938 3.3125 26.792969 3.441406 L 27.15625 4.019531 L 24.335938 5.949219 L 24.335938 5.023438 C 24.335938 4.863281 24.210938 4.738281 24.054688 4.738281 L 22.796875 4.738281 C 22.640625 4.738281 22.511719 4.863281 22.511719 5.023438 L 22.511719 5.988281 L 21.820312 5.988281 L 21.820312 5.023438 C 21.820312 4.863281 21.695312 4.738281 21.539062 4.738281 L 20.28125 4.738281 C 20.125 4.738281 19.996094 4.863281 19.996094 5.023438 L 19.996094 5.988281 L 19.308594 5.988281 L 19.308594 5.023438 C 19.308594 4.863281 19.179688 4.738281 19.023438 4.738281 L 17.769531 4.738281 C 17.613281 4.738281 17.484375 4.863281 17.484375 5.023438 L 17.484375 5.988281 L 16.796875 5.988281 L 16.796875 5.023438 C 16.796875 4.863281 16.667969 4.738281 16.511719 4.738281 L 15.253906 4.738281 C 15.097656 4.738281 14.96875 4.863281 14.96875 5.023438 L 14.96875 5.988281 L 14.28125 5.988281 L 14.28125 5.023438 C 14.28125 4.863281 14.152344 4.738281 13.996094 4.738281 L 12.738281 4.738281 C 12.582031 4.738281 12.457031 4.863281 12.457031 5.023438 L 12.457031 5.949219 L 9.632812 4.015625 L 10 3.441406 C 10.082031 3.3125 10.042969 3.136719 9.914062 3.054688 L 7.796875 1.664062 C 7.734375 1.621094 7.65625 1.605469 7.582031 1.621094 C 7.507812 1.636719 7.441406 1.683594 7.402344 1.746094 L 5.332031 5 L 4.25 4.289062 C 4.1875 4.25 4.109375 4.234375 4.035156 4.25 C 3.960938 4.265625 3.894531 4.3125 3.855469 4.375 L 3.152344 5.480469 L 2.070312 4.765625 C 2.007812 4.726562 1.929688 4.710938 1.855469 4.726562 C 1.78125 4.742188 1.714844 4.789062 1.675781 4.851562 L 0.992188 5.929688 C 0.90625 6.058594 0.945312 6.234375 1.074219 6.316406 L 2.164062 7.03125 L 1.457031 8.140625 C 1.375 8.273438 1.414062 8.445312 1.542969 8.53125 L 2.632812 9.246094 L 0.558594 12.503906 C 0.476562 12.636719 0.511719 12.808594 0.644531 12.894531 L 2.761719 14.285156 C 2.808594 14.316406 2.863281 14.332031 2.917969 14.332031 C 2.9375 14.332031 2.957031 14.328125 2.980469 14.324219 C 3.054688 14.308594 3.117188 14.265625 3.160156 14.199219 L 3.511719 13.644531 L 6.042969 15.386719 L 5.199219 15.648438 C 5.125 15.671875 5.066406 15.722656 5.03125 15.789062 C 4.996094 15.855469 4.988281 15.9375 5.011719 16.007812 L 5.394531 17.199219 C 5.433594 17.320312 5.542969 17.398438 5.664062 17.398438 C 5.691406 17.398438 5.71875 17.394531 5.75 17.382812 L 6.707031 17.082031 L 6.910156 17.734375 L 5.957031 18.035156 C 5.882812 18.058594 5.824219 18.109375 5.789062 18.175781 C 5.753906 18.242188 5.746094 18.320312 5.769531 18.390625 L 6.152344 19.582031 C 6.191406 19.703125 6.300781 19.777344 6.421875 19.777344 C 6.449219 19.777344 6.476562 19.773438 6.507812 19.765625 L 7.453125 19.46875 L 7.722656 20.324219 C 6.03125 20.964844 4.914062 22.558594 4.914062 24.378906 C 4.914062 26.679688 6.722656 28.5625 9 28.707031 L 9 32.183594 C 9 32.507812 9.128906 32.824219 9.355469 33.046875 C 9.585938 33.273438 9.902344 33.40625 10.226562 33.40625 C 10.804688 33.40625 11.289062 33.003906 11.417969 32.46875 L 13.125 32.46875 C 13.175781 32.6875 13.285156 32.890625 13.445312 33.046875 C 13.675781 33.277344 13.984375 33.40625 14.3125 33.40625 C 14.890625 33.40625 15.371094 33.003906 15.5 32.46875 L 17.207031 32.46875 C 17.261719 32.6875 17.371094 32.890625 17.53125 33.046875 C 17.765625 33.277344 18.070312 33.40625 18.394531 33.40625 C 18.972656 33.40625 19.457031 33.003906 19.585938 32.46875 L 21.292969 32.46875 C 21.34375 32.6875 21.453125 32.890625 21.613281 33.046875 C 21.839844 33.273438 22.15625 33.40625 22.480469 33.40625 C 23.058594 33.40625 23.539062 33.003906 23.667969 32.46875 L 25.375 32.46875 C 25.425781 32.6875 25.535156 32.890625 25.699219 33.046875 C 25.929688 33.277344 26.238281 33.40625 26.566406 33.40625 C 27.242188 33.40625 27.792969 32.859375 27.792969 32.183594 L 27.792969 24.421875 L 27.867188 24.1875 L 28.78125 24.472656 C 28.808594 24.480469 28.835938 24.484375 28.863281 24.484375 C 28.984375 24.484375 29.097656 24.40625 29.132812 24.285156 L 29.511719 23.097656 C 29.535156 23.027344 29.527344 22.949219 29.492188 22.878906 C 29.457031 22.8125 29.398438 22.761719 29.328125 22.742188 L 28.410156 22.449219 L 28.613281 21.800781 L 29.535156 22.089844 C 29.5625 22.097656 29.589844 22.101562 29.621094 22.101562 C 29.738281 22.101562 29.851562 22.027344 29.890625 21.90625 L 30.269531 20.714844 C 30.292969 20.640625 30.285156 20.5625 30.25 20.496094 C 30.214844 20.429688 30.15625 20.378906 30.085938 20.355469 L 29.152344 20.066406 L 29.355469 19.417969 L 30.292969 19.710938 C 30.320312 19.71875 30.347656 19.722656 30.378906 19.722656 C 30.496094 19.722656 30.609375 19.644531 30.648438 19.523438 L 31.023438 18.332031 C 31.046875 18.261719 31.042969 18.183594 31.007812 18.113281 C 30.972656 18.046875 30.910156 18 30.839844 17.976562 L 29.902344 17.679688 L 30.105469 17.03125 L 31.050781 17.328125 C 31.078125 17.335938 31.105469 17.339844 31.136719 17.339844 C 31.253906 17.339844 31.367188 17.265625 31.40625 17.144531 L 31.785156 15.949219 C 31.804688 15.878906 31.800781 15.800781 31.765625 15.734375 C 31.730469 15.667969 31.671875 15.617188 31.597656 15.59375 L 30.808594 15.347656 L 33.28125 13.644531 L 33.632812 14.199219 C 33.675781 14.265625 33.742188 14.308594 33.816406 14.324219 C 33.835938 14.332031 33.855469 14.332031 33.875 14.332031 C 33.929688 14.332031 33.984375 14.316406 34.03125 14.285156 L 36.148438 12.894531 C 36.277344 12.808594 36.316406 12.636719 36.234375 12.503906 Z M 32.613281 4.921875 L 34.703125 8.210938 L 33.855469 8.765625 L 31.765625 5.480469 Z M 29.28125 17.753906 C 29.28125 17.753906 29.28125 17.757812 29.28125 17.757812 L 29.277344 17.769531 C 29.277344 17.773438 29.273438 17.777344 29.269531 17.78125 L 28.382812 20.628906 C 28.277344 19.464844 27.582031 18.4375 26.539062 17.898438 L 27.316406 15.410156 C 27.339844 15.328125 27.328125 15.238281 27.28125 15.167969 L 22.957031 8.613281 C 22.902344 8.53125 22.8125 8.484375 22.71875 8.484375 L 14.074219 8.484375 C 13.976562 8.484375 13.890625 8.53125 13.835938 8.613281 L 9.511719 15.167969 C 9.464844 15.238281 9.453125 15.328125 9.476562 15.410156 L 10.550781 18.847656 L 9.171875 20.039062 C 8.863281 20.046875 8.5625 20.085938 8.261719 20.15625 L 6.765625 15.371094 L 12.578125 6.554688 L 24.214844 6.554688 L 30.027344 15.371094 Z M 11.453125 28.144531 C 12.148438 27.75 12.707031 27.1875 13.085938 26.519531 L 13.085938 31.902344 L 11.453125 31.902344 Z M 11.757812 20.808594 L 11.207031 19.035156 L 15.945312 14.9375 C 15.925781 15.0625 15.914062 15.195312 15.914062 15.324219 C 15.914062 16.128906 16.308594 16.875 16.96875 17.339844 L 19.683594 20.238281 L 16.394531 22.222656 L 13.066406 22.222656 C 12.742188 21.660156 12.296875 21.175781 11.757812 20.808594 Z M 11.039062 20.402344 C 10.699219 20.257812 10.34375 20.152344 9.980469 20.09375 L 10.738281 19.4375 Z M 27.410156 23.746094 C 27.410156 23.746094 27.410156 23.75 27.410156 23.75 L 27.300781 24.09375 L 26.3125 24.09375 C 26.8125 23.878906 27.253906 23.550781 27.601562 23.136719 Z M 14.390625 24.09375 L 16.554688 22.789062 L 22.046875 22.789062 C 22.425781 23.375 22.964844 23.828125 23.589844 24.09375 Z M 18.394531 17.792969 C 19.765625 17.792969 20.878906 16.6875 20.878906 15.324219 C 20.878906 15.191406 20.867188 15.0625 20.847656 14.933594 L 24.226562 17.589844 C 23.570312 17.734375 22.960938 18.0625 22.484375 18.546875 L 20.179688 19.9375 L 18.152344 17.777344 C 18.234375 17.785156 18.316406 17.792969 18.394531 17.792969 Z M 21.75 19.652344 C 21.585938 20.058594 21.496094 20.496094 21.496094 20.945312 C 21.496094 21.089844 21.503906 21.230469 21.523438 21.371094 L 20.574219 20.359375 Z M 21.542969 22.222656 L 17.492188 22.222656 L 20.078125 20.660156 Z M 24.945312 23.808594 C 23.917969 23.808594 22.957031 23.253906 22.441406 22.363281 C 22.195312 21.933594 22.0625 21.441406 22.0625 20.945312 C 22.0625 20.207031 22.347656 19.507812 22.863281 18.96875 C 23.410156 18.398438 24.152344 18.082031 24.945312 18.082031 C 25.339844 18.082031 25.71875 18.15625 26.082031 18.3125 C 27.144531 18.761719 27.832031 19.796875 27.832031 20.945312 C 27.832031 22.523438 26.539062 23.808594 24.945312 23.808594 Z M 26.011719 17.679688 C 25.699219 17.582031 25.378906 17.527344 25.050781 17.519531 L 20.378906 13.84375 C 19.910156 13.226562 19.175781 12.855469 18.394531 12.855469 C 17.722656 12.855469 17.074219 13.132812 16.605469 13.617188 L 11.019531 18.441406 L 10.058594 15.367188 L 14.226562 9.050781 L 22.566406 9.050781 L 26.734375 15.367188 Z M 15.453125 22.789062 L 13.625 23.894531 C 13.582031 23.515625 13.484375 23.144531 13.347656 22.789062 Z M 15.539062 24.664062 L 17.171875 24.664062 L 17.171875 31.902344 L 15.539062 31.902344 Z M 19.621094 24.664062 L 21.253906 24.664062 L 21.253906 31.902344 L 19.621094 31.902344 Z M 23.707031 24.664062 L 25.339844 24.664062 L 25.339844 31.902344 L 23.707031 31.902344 Z M 2.089844 8.210938 L 4.179688 4.921875 L 5.027344 5.480469 L 2.9375 8.765625 Z M 4.882812 11.484375 L 6.761719 12.714844 C 6.808594 12.746094 6.863281 12.761719 6.917969 12.761719 C 7.011719 12.761719 7.101562 12.71875 7.15625 12.632812 C 7.242188 12.503906 7.203125 12.328125 7.074219 12.242188 L 5.1875 11.003906 L 6.425781 9.0625 L 8.304688 10.292969 C 8.351562 10.324219 8.40625 10.339844 8.460938 10.339844 C 8.550781 10.339844 8.644531 10.296875 8.695312 10.210938 C 8.78125 10.082031 8.746094 9.90625 8.613281 9.820312 L 6.730469 8.585938 L 7.964844 6.644531 L 9.84375 7.875 C 9.890625 7.90625 9.945312 7.921875 9.996094 7.921875 C 10.089844 7.921875 10.179688 7.875 10.234375 7.792969 C 10.320312 7.660156 10.285156 7.484375 10.152344 7.398438 L 8.269531 6.164062 L 9.332031 4.496094 L 12.035156 6.347656 L 6.378906 14.925781 L 3.816406 13.164062 Z M 5.480469 24.378906 C 5.480469 22.714844 6.558594 21.265625 8.15625 20.773438 C 8.167969 20.769531 8.179688 20.765625 8.191406 20.761719 C 8.542969 20.65625 8.910156 20.605469 9.28125 20.605469 C 10.027344 20.605469 10.746094 20.816406 11.359375 21.214844 C 11.910156 21.574219 12.355469 22.066406 12.65625 22.636719 C 12.9375 23.171875 13.085938 23.773438 13.085938 24.378906 C 13.085938 25.792969 12.300781 27.074219 11.039062 27.726562 C 10.496094 28.011719 9.90625 28.15625 9.28125 28.15625 C 7.1875 28.15625 5.480469 26.460938 5.480469 24.378906 Z M 30.414062 14.925781 L 24.757812 6.347656 L 27.460938 4.496094 L 28.523438 6.164062 L 26.640625 7.398438 C 26.507812 7.484375 26.472656 7.660156 26.558594 7.792969 C 26.613281 7.875 26.703125 7.921875 26.796875 7.921875 C 26.847656 7.921875 26.902344 7.90625 26.949219 7.875 L 28.828125 6.644531 L 30.0625 8.585938 L 28.179688 9.820312 C 28.046875 9.90625 28.011719 10.082031 28.097656 10.210938 C 28.152344 10.296875 28.242188 10.339844 28.332031 10.339844 C 28.386719 10.339844 28.441406 10.324219 28.488281 10.292969 L 30.367188 9.0625 L 31.605469 11.003906 L 29.71875 12.242188 C 29.589844 12.328125 29.550781 12.503906 29.636719 12.632812 C 29.691406 12.71875 29.78125 12.761719 29.875 12.761719 C 29.929688 12.761719 29.984375 12.746094 30.03125 12.714844 L 31.910156 11.484375 L 32.976562 13.164062 Z M 30.414062 14.925781 " fill-opacity="1" fill-rule="nonzero"/></g></svg>