<svg xmlns="http://www.w3.org/2000/svg" xmlns:xlink="http://www.w3.org/1999/xlink" width="48" zoomAndPan="magnify" viewBox="0 0 36 36.000001" height="48" preserveAspectRatio="xMidYMid meet" version="1.0"><defs><clipPath id="e571f2ef34"><path d="M 2.105469 0 L 32.027344 0 L 32.027344 35.027344 L 2.105469 35.027344 Z M 2.105469 0 " clip-rule="nonzero"/></clipPath></defs><g clip-path="url(#e571f2ef34)"><path fill="#545454" d="M 20.84375 20.683594 C 21.375 21.1875 21.816406 21.617188 22.269531 22.03125 C 22.625 22.351562 22.648438 22.636719 22.285156 22.976562 C 21.789062 23.433594 21.328125 23.925781 20.851562 24.402344 C 20.34375 24.90625 20.34375 24.90625 19.792969 24.566406 C 17.449219 26.914062 15.113281 29.253906 12.757812 31.617188 C 13.160156 31.96875 13.003906 32.300781 12.613281 32.648438 C 12.144531 33.074219 11.710938 33.542969 11.257812 33.988281 C 10.730469 34.511719 10.652344 34.515625 10.117188 33.964844 C 9.839844 33.683594 9.585938 33.375 9.207031 32.957031 C 8.628906 33.578125 8.105469 34.109375 7.613281 34.667969 C 7.316406 35.003906 7.03125 35.097656 6.574219 34.953125 C 5.3125 34.542969 4.027344 34.207031 2.753906 33.828125 C 1.972656 33.59375 1.917969 33.371094 2.488281 32.800781 C 3.542969 31.75 4.605469 30.707031 5.71875 29.605469 C 5.371094 29.246094 5.078125 28.90625 4.742188 28.609375 C 4.347656 28.257812 4.3125 27.953125 4.722656 27.578125 C 5.234375 27.109375 5.726562 26.617188 6.195312 26.105469 C 6.535156 25.730469 6.839844 25.671875 7.152344 26.039062 L 14.203125 18.964844 C 13.671875 18.558594 14.066406 18.21875 14.449219 17.859375 C 14.882812 17.449219 15.292969 17.019531 15.714844 16.597656 C 16.238281 16.074219 16.3125 16.066406 16.8125 16.582031 C 17.222656 17.007812 17.605469 17.460938 17.984375 17.882812 C 18.695312 17.199219 19.347656 16.671875 19.867188 16.03125 C 20.109375 15.734375 20.175781 15.222656 20.175781 14.808594 C 20.167969 13.457031 20.125 12.105469 20.035156 10.761719 C 19.960938 9.691406 20.292969 8.839844 21.074219 8.101562 C 22.15625 7.082031 23.199219 6.015625 24.230469 4.941406 C 24.40625 4.757812 24.519531 4.433594 24.511719 4.175781 C 24.492188 3.515625 24.414062 2.851562 24.3125 2.199219 C 24.078125 0.703125 25.390625 -0.371094 26.832031 0.132812 C 27.082031 0.222656 27.375 0.28125 27.632812 0.246094 C 30.222656 -0.0664062 32.125 2.1875 31.730469 4.421875 C 31.6875 4.65625 31.773438 4.929688 31.859375 5.164062 C 32.132812 5.933594 32.023438 6.628906 31.441406 7.195312 C 30.882812 7.738281 30.21875 7.78125 29.453125 7.59375 C 28.800781 7.433594 28.097656 7.46875 27.414062 7.449219 C 27.3125 7.445312 27.195312 7.605469 27.097656 7.699219 C 26.28125 8.511719 25.476562 9.335938 24.652344 10.136719 C 24.226562 10.554688 24.035156 11.035156 24.058594 11.632812 C 24.125 13.117188 24.152344 14.609375 24.214844 16.09375 C 24.25 16.945312 23.96875 17.644531 23.355469 18.230469 C 22.542969 19.011719 21.742188 19.808594 20.84375 20.683594 Z M 12.050781 30.890625 L 19.054688 23.898438 L 14.90625 19.714844 L 7.886719 26.722656 Z M 20.4375 20.082031 C 21.210938 19.296875 21.992188 18.484375 22.800781 17.699219 C 23.292969 17.222656 23.5 16.667969 23.464844 15.988281 C 23.394531 14.722656 23.394531 13.445312 23.28125 12.183594 C 23.171875 10.996094 23.523438 10.054688 24.425781 9.273438 C 25.167969 8.628906 25.855469 7.921875 26.304688 7.5 L 24.585938 5.808594 C 23.617188 6.753906 22.34375 7.945312 21.148438 9.214844 C 20.882812 9.5 20.816406 10.058594 20.816406 10.492188 C 20.828125 11.921875 20.902344 13.347656 20.972656 14.777344 C 21.019531 15.644531 20.742188 16.371094 20.109375 16.964844 C 19.621094 17.425781 19.140625 17.894531 18.691406 18.332031 Z M 30.878906 3.917969 C 31.019531 2.167969 29.484375 0.792969 27.8125 0.984375 C 27.417969 1.03125 26.988281 0.980469 26.609375 0.863281 C 26.121094 0.710938 25.710938 0.730469 25.351562 1.09375 C 24.992188 1.460938 25.007812 1.890625 25.167969 2.363281 C 25.269531 2.667969 25.332031 3.019531 25.300781 3.335938 C 25.089844 5.359375 26.425781 6.777344 28.464844 6.707031 C 28.902344 6.691406 29.347656 6.867188 29.792969 6.867188 C 30.160156 6.863281 30.621094 6.835938 30.875 6.621094 C 31.105469 6.425781 31.207031 5.960938 31.1875 5.621094 C 31.160156 5.050781 30.992188 4.484375 30.878906 3.917969 Z M 5.386719 28.085938 L 10.679688 33.371094 L 11.976562 32.144531 L 6.636719 26.800781 Z M 21.574219 22.554688 L 16.300781 17.269531 L 15.015625 18.433594 L 20.289062 23.738281 Z M 3.332031 33.191406 C 4.472656 33.527344 5.585938 33.863281 6.703125 34.171875 C 6.824219 34.207031 7.023438 34.148438 7.121094 34.0625 C 7.652344 33.59375 8.160156 33.101562 8.644531 32.648438 L 6.242188 30.257812 Z M 3.332031 33.191406 " fill-opacity="1" fill-rule="nonzero"/></g><path fill="#545454" d="M 29.523438 3.878906 C 29.511719 4.636719 28.835938 5.285156 28.089844 5.25 C 27.355469 5.214844 26.742188 4.566406 26.753906 3.839844 C 26.761719 3.066406 27.394531 2.476562 28.191406 2.496094 C 28.953125 2.515625 29.535156 3.121094 29.523438 3.878906 Z M 28.304688 3.160156 L 28.039062 3.144531 C 27.867188 3.371094 27.558594 3.605469 27.570312 3.824219 C 27.585938 4.042969 27.882812 4.355469 28.117188 4.421875 C 28.464844 4.523438 28.761719 4.253906 28.714844 3.882812 C 28.679688 3.628906 28.449219 3.398438 28.304688 3.160156 Z M 28.304688 3.160156 " fill-opacity="1" fill-rule="nonzero"/><path fill="#545454" d="M 30.214844 6.464844 C 30.027344 6.195312 29.855469 6.050781 29.828125 5.878906 C 29.8125 5.773438 30.0625 5.511719 30.105469 5.53125 C 30.277344 5.605469 30.484375 5.734375 30.539062 5.890625 C 30.578125 5.996094 30.382812 6.183594 30.214844 6.464844 Z M 30.214844 6.464844 " fill-opacity="1" fill-rule="nonzero"/><path fill="#545454" d="M 26.644531 1.757812 C 26.382812 1.957031 26.242188 2.148438 26.117188 2.140625 C 25.96875 2.132812 25.75 1.960938 25.726562 1.828125 C 25.703125 1.714844 25.90625 1.453125 26.019531 1.445312 C 26.179688 1.433594 26.351562 1.601562 26.644531 1.757812 Z M 26.644531 1.757812 " fill-opacity="1" fill-rule="nonzero"/></svg>