<svg xmlns="http://www.w3.org/2000/svg" xmlns:xlink="http://www.w3.org/1999/xlink" width="48" zoomAndPan="magnify" viewBox="0 0 36 36.000001" height="48" preserveAspectRatio="xMidYMid meet" version="1.0"><defs><clipPath id="58a908ff64"><path d="M 0.488281 3.632812 L 35.511719 3.632812 L 35.511719 31.363281 L 0.488281 31.363281 Z M 0.488281 3.632812 " clip-rule="nonzero"/></clipPath></defs><path fill="#545454" d="M 13.089844 11.699219 C 12.828125 11.863281 12.527344 11.953125 12.21875 11.953125 C 11.3125 11.953125 10.578125 11.214844 10.578125 10.3125 C 10.578125 9.410156 11.3125 8.675781 12.21875 8.675781 C 12.527344 8.675781 12.828125 8.761719 13.085938 8.925781 C 13.246094 9.03125 13.457031 8.984375 13.558594 8.824219 C 13.664062 8.664062 13.617188 8.453125 13.457031 8.351562 C 13.085938 8.113281 12.660156 7.988281 12.21875 7.988281 C 10.933594 7.988281 9.894531 9.03125 9.894531 10.3125 C 9.894531 11.597656 10.933594 12.640625 12.21875 12.640625 C 12.660156 12.640625 13.089844 12.515625 13.460938 12.277344 C 13.617188 12.175781 13.664062 11.964844 13.5625 11.804688 C 13.460938 11.640625 13.246094 11.597656 13.089844 11.699219 Z M 13.089844 11.699219 " fill-opacity="1" fill-rule="nonzero"/><path fill="#545454" d="M 24.097656 7.988281 C 23.65625 7.988281 23.226562 8.113281 22.859375 8.351562 C 22.703125 8.453125 22.65625 8.664062 22.761719 8.824219 C 22.863281 8.984375 23.074219 9.03125 23.234375 8.925781 C 23.488281 8.761719 23.789062 8.675781 24.097656 8.675781 C 25.003906 8.675781 25.738281 9.410156 25.738281 10.3125 C 25.738281 11.214844 25.003906 11.953125 24.097656 11.953125 C 23.789062 11.953125 23.488281 11.863281 23.230469 11.699219 C 23.070312 11.597656 22.859375 11.640625 22.757812 11.800781 C 22.65625 11.960938 22.699219 12.171875 22.859375 12.277344 C 23.230469 12.511719 23.65625 12.636719 24.097656 12.636719 C 25.382812 12.636719 26.421875 11.59375 26.421875 10.308594 C 26.421875 9.03125 25.378906 7.988281 24.097656 7.988281 Z M 24.097656 7.988281 " fill-opacity="1" fill-rule="nonzero"/><path fill="#545454" d="M 19.195312 8.847656 C 19.039062 8.742188 18.824219 8.78125 18.71875 8.9375 L 18.375 9.449219 C 18.304688 9.429688 18.234375 9.421875 18.160156 9.421875 C 17.667969 9.421875 17.265625 9.820312 17.265625 10.3125 C 17.265625 10.507812 17.328125 10.6875 17.4375 10.832031 L 17.234375 11.128906 C 17.128906 11.285156 17.167969 11.5 17.324219 11.605469 C 17.382812 11.644531 17.449219 11.664062 17.515625 11.664062 C 17.625 11.664062 17.734375 11.613281 17.800781 11.511719 L 18.019531 11.191406 C 18.066406 11.199219 18.113281 11.203125 18.160156 11.203125 C 18.648438 11.203125 19.050781 10.800781 19.050781 10.308594 C 19.050781 10.144531 19.003906 9.988281 18.925781 9.855469 L 19.289062 9.320312 C 19.394531 9.167969 19.351562 8.953125 19.195312 8.847656 Z M 19.195312 8.847656 " fill-opacity="1" fill-rule="nonzero"/><path fill="#545454" d="M 24.753906 17.207031 C 24.753906 15.992188 23.769531 15.007812 22.558594 15.007812 L 13.757812 15.007812 C 12.546875 15.007812 11.5625 15.992188 11.5625 17.207031 L 11.5625 17.609375 C 11.5625 18.824219 12.546875 19.808594 13.757812 19.808594 L 22.558594 19.808594 C 23.769531 19.808594 24.753906 18.824219 24.753906 17.609375 Z M 17.613281 17.726562 L 17.613281 17.09375 L 18.707031 17.09375 L 18.707031 17.726562 Z M 18.703125 18.410156 L 18.703125 19.121094 L 17.613281 19.121094 L 17.613281 18.410156 Z M 17.613281 16.40625 L 17.613281 15.695312 L 18.707031 15.695312 L 18.707031 16.40625 Z M 12.25 17.613281 L 12.25 17.207031 C 12.25 16.375 12.925781 15.695312 13.757812 15.695312 L 16.925781 15.695312 L 16.925781 16.40625 L 13.164062 16.40625 C 12.972656 16.40625 12.820312 16.558594 12.820312 16.75 C 12.820312 16.9375 12.972656 17.09375 13.164062 17.09375 L 16.925781 17.09375 L 16.925781 17.726562 L 13.164062 17.726562 C 12.972656 17.726562 12.820312 17.878906 12.820312 18.066406 C 12.820312 18.257812 12.972656 18.410156 13.164062 18.410156 L 16.925781 18.410156 L 16.925781 19.121094 L 13.757812 19.121094 C 12.925781 19.121094 12.25 18.445312 12.25 17.613281 Z M 24.070312 17.613281 C 24.070312 18.445312 23.390625 19.121094 22.558594 19.121094 L 19.390625 19.121094 L 19.390625 18.410156 L 23.15625 18.410156 C 23.34375 18.410156 23.5 18.257812 23.5 18.070312 C 23.5 17.878906 23.34375 17.726562 23.15625 17.726562 L 19.390625 17.726562 L 19.390625 17.09375 L 23.15625 17.09375 C 23.34375 17.09375 23.5 16.941406 23.5 16.75 C 23.5 16.5625 23.34375 16.40625 23.15625 16.40625 L 19.390625 16.40625 L 19.390625 15.699219 L 22.558594 15.699219 C 23.390625 15.699219 24.070312 16.375 24.070312 17.207031 Z M 24.070312 17.613281 " fill-opacity="1" fill-rule="nonzero"/><path fill="#545454" d="M 22.734375 20.746094 L 13.578125 20.746094 C 13.390625 20.746094 13.234375 20.902344 13.234375 21.089844 L 13.234375 22.589844 C 13.234375 22.777344 13.390625 22.929688 13.578125 22.929688 L 22.734375 22.929688 C 22.925781 22.929688 23.078125 22.777344 23.078125 22.589844 L 23.078125 21.089844 C 23.078125 20.902344 22.925781 20.746094 22.734375 20.746094 Z M 22.390625 22.246094 L 13.921875 22.246094 L 13.921875 21.433594 L 22.390625 21.433594 Z M 22.390625 22.246094 " fill-opacity="1" fill-rule="nonzero"/><path fill="#545454" d="M 22.734375 27.640625 L 13.578125 27.640625 C 13.390625 27.640625 13.234375 27.792969 13.234375 27.984375 L 13.234375 29.480469 C 13.234375 29.671875 13.390625 29.824219 13.578125 29.824219 L 22.734375 29.824219 C 22.925781 29.824219 23.078125 29.671875 23.078125 29.480469 L 23.078125 27.984375 C 23.078125 27.796875 22.925781 27.640625 22.734375 27.640625 Z M 22.390625 29.140625 L 13.921875 29.140625 L 13.921875 28.328125 L 22.390625 28.328125 Z M 22.390625 29.140625 " fill-opacity="1" fill-rule="nonzero"/><path fill="#545454" d="M 14.496094 26.714844 C 15.191406 26.714844 15.753906 26.148438 15.753906 25.457031 C 15.753906 24.761719 15.1875 24.199219 14.496094 24.199219 C 13.800781 24.199219 13.238281 24.761719 13.238281 25.457031 C 13.234375 26.148438 13.800781 26.714844 14.496094 26.714844 Z M 14.496094 24.882812 C 14.8125 24.882812 15.066406 25.140625 15.066406 25.457031 C 15.066406 25.773438 14.8125 26.027344 14.496094 26.027344 C 14.179688 26.027344 13.921875 25.773438 13.921875 25.457031 C 13.921875 25.140625 14.179688 24.882812 14.496094 24.882812 Z M 14.496094 24.882812 " fill-opacity="1" fill-rule="nonzero"/><path fill="#545454" d="M 19.414062 25.457031 C 19.414062 24.761719 18.851562 24.199219 18.15625 24.199219 C 17.464844 24.199219 16.898438 24.761719 16.898438 25.457031 C 16.898438 26.152344 17.464844 26.714844 18.15625 26.714844 C 18.851562 26.714844 19.414062 26.148438 19.414062 25.457031 Z M 17.585938 25.457031 C 17.585938 25.140625 17.84375 24.882812 18.15625 24.882812 C 18.472656 24.882812 18.730469 25.140625 18.730469 25.457031 C 18.730469 25.773438 18.472656 26.027344 18.15625 26.027344 C 17.84375 26.027344 17.585938 25.773438 17.585938 25.457031 Z M 17.585938 25.457031 " fill-opacity="1" fill-rule="nonzero"/><path fill="#545454" d="M 21.820312 24.199219 C 21.125 24.199219 20.5625 24.761719 20.5625 25.457031 C 20.5625 26.152344 21.125 26.714844 21.820312 26.714844 C 22.511719 26.714844 23.078125 26.148438 23.078125 25.457031 C 23.078125 24.761719 22.515625 24.199219 21.820312 24.199219 Z M 21.820312 26.027344 C 21.503906 26.027344 21.246094 25.773438 21.246094 25.457031 C 21.246094 25.140625 21.503906 24.882812 21.820312 24.882812 C 22.136719 24.882812 22.390625 25.140625 22.390625 25.457031 C 22.390625 25.773438 22.136719 26.027344 21.820312 26.027344 Z M 21.820312 26.027344 " fill-opacity="1" fill-rule="nonzero"/><g clip-path="url(#58a908ff64)"><path fill="#545454" d="M 33.066406 9.902344 L 29.277344 9.78125 C 28.53125 7.828125 27.332031 5.65625 25.519531 4.914062 C 22.558594 3.699219 18.929688 3.632812 18.164062 3.632812 C 18.148438 3.632812 18.136719 3.632812 18.121094 3.632812 C 17.363281 3.632812 13.753906 3.703125 10.796875 4.914062 C 8.976562 5.660156 7.777344 7.828125 7.039062 9.773438 L 2.933594 9.902344 C 1.5625 9.945312 0.492188 11.050781 0.492188 12.421875 L 0.492188 22.945312 C 0.492188 24.183594 1.5 25.191406 2.738281 25.191406 L 11.054688 25.191406 L 11.054688 29.800781 C 11.054688 30.675781 11.765625 31.386719 12.640625 31.386719 L 23.359375 31.386719 C 24.234375 31.386719 24.945312 30.675781 24.945312 29.800781 L 24.945312 25.191406 L 33.261719 25.191406 C 34.5 25.191406 35.507812 24.183594 35.507812 22.945312 L 35.507812 12.421875 C 35.507812 11.050781 34.4375 9.945312 33.066406 9.902344 Z M 33.046875 10.585938 C 34.042969 10.617188 34.820312 11.425781 34.820312 12.421875 L 34.820312 13.015625 L 30.21875 13.015625 C 30.121094 12.539062 29.898438 11.578125 29.527344 10.476562 Z M 15.761719 13.015625 C 15.070312 12.40625 14.644531 11.566406 14.558594 10.65625 L 14.730469 10.65625 C 14.921875 10.65625 15.074219 10.503906 15.074219 10.3125 C 15.074219 10.125 14.921875 9.96875 14.730469 9.96875 L 14.554688 9.96875 C 14.59375 9.558594 14.703125 9.167969 14.867188 8.808594 L 15.019531 8.898438 C 15.074219 8.929688 15.132812 8.945312 15.191406 8.945312 C 15.308594 8.945312 15.425781 8.882812 15.488281 8.773438 C 15.582031 8.605469 15.527344 8.398438 15.363281 8.300781 L 15.210938 8.214844 C 15.445312 7.890625 15.734375 7.601562 16.0625 7.367188 L 16.148438 7.515625 C 16.210938 7.625 16.328125 7.6875 16.445312 7.6875 C 16.503906 7.6875 16.5625 7.675781 16.617188 7.644531 C 16.78125 7.546875 16.835938 7.339844 16.742188 7.175781 L 16.65625 7.023438 C 17.015625 6.859375 17.40625 6.75 17.816406 6.710938 L 17.816406 6.886719 C 17.816406 7.074219 17.96875 7.230469 18.160156 7.230469 C 18.347656 7.230469 18.5 7.074219 18.5 6.886719 L 18.5 6.710938 C 18.914062 6.75 19.300781 6.859375 19.660156 7.023438 L 19.574219 7.171875 C 19.480469 7.335938 19.535156 7.546875 19.699219 7.640625 C 19.753906 7.671875 19.8125 7.6875 19.871094 7.6875 C 19.988281 7.6875 20.105469 7.625 20.167969 7.515625 L 20.253906 7.367188 C 20.582031 7.601562 20.871094 7.890625 21.101562 8.214844 L 20.953125 8.300781 C 20.789062 8.398438 20.734375 8.605469 20.828125 8.773438 C 20.890625 8.882812 21.007812 8.945312 21.125 8.945312 C 21.183594 8.945312 21.242188 8.929688 21.296875 8.898438 L 21.445312 8.8125 C 21.609375 9.171875 21.71875 9.5625 21.757812 9.972656 L 21.585938 9.972656 C 21.394531 9.972656 21.242188 10.125 21.242188 10.3125 C 21.242188 10.503906 21.394531 10.65625 21.585938 10.65625 L 21.753906 10.65625 C 21.667969 11.566406 21.242188 12.40625 20.554688 13.015625 Z M 22.460938 10.328125 C 22.460938 10.324219 22.460938 10.316406 22.460938 10.3125 C 22.460938 10.304688 22.460938 10.300781 22.460938 10.296875 C 22.457031 9.527344 22.253906 8.804688 21.894531 8.183594 C 21.890625 8.175781 21.890625 8.167969 21.886719 8.160156 C 21.882812 8.15625 21.878906 8.148438 21.871094 8.140625 C 21.496094 7.503906 20.960938 6.96875 20.320312 6.59375 C 20.316406 6.589844 20.316406 6.589844 20.3125 6.585938 C 20.308594 6.582031 20.300781 6.582031 20.296875 6.582031 C 19.667969 6.214844 18.9375 6.007812 18.15625 6.007812 C 17.375 6.007812 16.640625 6.21875 16.007812 6.585938 C 16.007812 6.585938 16.007812 6.585938 16.003906 6.585938 C 15.351562 6.964844 14.808594 7.507812 14.433594 8.15625 C 14.433594 8.160156 14.429688 8.160156 14.429688 8.160156 C 14.429688 8.160156 14.429688 8.160156 14.429688 8.164062 C 14.0625 8.796875 13.851562 9.527344 13.851562 10.3125 C 13.851562 11.308594 14.195312 12.257812 14.8125 13.015625 L 6.835938 13.015625 C 7.34375 11.4375 9.261719 7.269531 11.40625 6.394531 C 14.042969 5.3125 17.46875 5.238281 18.125 5.234375 C 18.152344 5.234375 18.164062 5.234375 18.191406 5.234375 C 18.851562 5.238281 22.273438 5.3125 24.914062 6.394531 C 27.054688 7.269531 28.972656 11.4375 29.484375 13.015625 L 21.503906 13.015625 C 22.113281 12.261719 22.457031 11.320312 22.460938 10.328125 Z M 11.058594 5.550781 C 13.929688 4.371094 17.472656 4.324219 18.148438 4.320312 C 18.148438 4.320312 18.175781 4.320312 18.175781 4.320312 C 18.179688 4.320312 18.183594 4.320312 18.1875 4.320312 C 18.90625 4.320312 22.417969 4.382812 25.261719 5.550781 C 26.230469 5.945312 27.039062 6.875 27.691406 8.007812 C 26.960938 7 26.105469 6.140625 25.171875 5.757812 C 22.488281 4.65625 19.152344 4.550781 18.1875 4.546875 C 18.179688 4.546875 18.160156 4.546875 18.152344 4.546875 C 18.144531 4.546875 18.132812 4.546875 18.121094 4.546875 C 17.164062 4.550781 13.828125 4.65625 11.144531 5.757812 C 10.191406 6.148438 9.320312 7.035156 8.578125 8.074219 C 9.210938 6.945312 10.03125 5.96875 11.058594 5.550781 Z M 2.953125 10.585938 L 6.789062 10.464844 C 6.410156 11.589844 6.191406 12.5625 6.097656 13.015625 L 1.179688 13.015625 L 1.179688 12.421875 C 1.179688 11.425781 1.960938 10.617188 2.953125 10.585938 Z M 2.738281 24.503906 C 1.878906 24.503906 1.179688 23.804688 1.179688 22.945312 L 1.179688 18.941406 L 8.398438 19.878906 C 9.914062 20.078125 11.054688 21.378906 11.054688 22.90625 L 11.054688 24.503906 Z M 23.359375 30.699219 L 12.640625 30.699219 C 12.144531 30.699219 11.742188 30.296875 11.742188 29.800781 L 11.742188 24.859375 C 11.742188 24.855469 11.742188 24.851562 11.742188 24.847656 C 11.742188 24.84375 11.742188 24.839844 11.742188 24.839844 L 11.742188 22.90625 C 11.742188 21.03125 10.339844 19.4375 8.484375 19.199219 L 1.179688 18.25 L 1.179688 13.703125 L 34.820312 13.703125 L 34.820312 18.25 L 27.515625 19.199219 C 25.660156 19.4375 24.257812 21.03125 24.257812 22.90625 L 24.257812 24.839844 C 24.257812 24.84375 24.257812 24.84375 24.257812 24.847656 C 24.257812 24.851562 24.257812 24.855469 24.257812 24.859375 L 24.257812 29.800781 C 24.257812 30.296875 23.855469 30.699219 23.359375 30.699219 Z M 33.261719 24.503906 L 24.945312 24.503906 L 24.945312 22.90625 C 24.945312 21.378906 26.089844 20.078125 27.605469 19.878906 L 34.820312 18.941406 L 34.820312 22.945312 C 34.820312 23.804688 34.121094 24.503906 33.261719 24.503906 Z M 33.261719 24.503906 " fill-opacity="1" fill-rule="nonzero"/></g><path fill="#545454" d="M 8.351562 21.054688 L 3.121094 21.054688 C 2.929688 21.054688 2.777344 21.207031 2.777344 21.394531 L 2.777344 23.121094 C 2.777344 23.3125 2.929688 23.464844 3.121094 23.464844 L 8.351562 23.464844 C 8.542969 23.464844 8.695312 23.3125 8.695312 23.121094 L 8.695312 21.394531 C 8.695312 21.207031 8.542969 21.054688 8.351562 21.054688 Z M 8.007812 22.777344 L 3.464844 22.777344 L 3.464844 21.738281 L 8.007812 21.738281 Z M 8.007812 22.777344 " fill-opacity="1" fill-rule="nonzero"/></svg>