<svg xmlns="http://www.w3.org/2000/svg" xmlns:xlink="http://www.w3.org/1999/xlink" width="48" zoomAndPan="magnify" viewBox="0 0 36 36.000001" height="48" preserveAspectRatio="xMidYMid meet" version="1.0"><defs><filter x="0%" y="0%" width="100%" height="100%" id="55bf93a6f0"><feColorMatrix values="0 0 0 0 1 0 0 0 0 1 0 0 0 0 1 0 0 0 1 0" color-interpolation-filters="sRGB"/></filter><clipPath id="3175e3c8ab"><path d="M 0.488281 1 L 35.511719 1 L 35.511719 34 L 0.488281 34 Z M 0.488281 1 " clip-rule="nonzero"/></clipPath><mask id="e6cbc7cf5b"><g filter="url(#55bf93a6f0)"><rect x="-3.6" width="43.2" fill="#000000" y="-3.6" height="43.200001" fill-opacity="0.2"/></g></mask><clipPath id="92b3e45869"><path d="M 0.488281 0.578125 L 35.511719 0.578125 L 35.511719 32.683594 L 0.488281 32.683594 Z M 0.488281 0.578125 " clip-rule="nonzero"/></clipPath><clipPath id="6f6265f093"><rect x="0" width="36" y="0" height="33"/></clipPath><clipPath id="68e94b4c4a"><path d="M 1.75 3.503906 L 34.585938 3.503906 L 34.585938 34.152344 L 1.75 34.152344 Z M 1.75 3.503906 " clip-rule="nonzero"/></clipPath></defs><g clip-path="url(#3175e3c8ab)"><g mask="url(#e6cbc7cf5b)"><g transform="matrix(1, 0, 0, 1, 0.000000000000000056, 1)"><g clip-path="url(#6f6265f093)"><path fill="#000000" d="M 12.050781 23.550781 C 12.050781 22.003906 10.800781 20.75 9.261719 20.75 C 7.722656 20.75 6.472656 22.003906 6.472656 23.550781 C 6.472656 25.097656 7.722656 26.351562 9.261719 26.351562 C 10.800781 26.351562 12.050781 25.097656 12.050781 23.550781 Z M 10.230469 23.550781 C 10.230469 24.085938 9.796875 24.523438 9.261719 24.523438 C 8.722656 24.523438 8.289062 24.085938 8.289062 23.550781 C 8.289062 23.015625 8.726562 22.578125 9.261719 22.578125 C 9.796875 22.578125 10.230469 23.015625 10.230469 23.550781 Z M 10.230469 23.550781 " fill-opacity="1" fill-rule="nonzero"/><path fill="#000000" d="M 24.886719 17.855469 C 23.660156 17.855469 22.664062 18.859375 22.664062 20.089844 C 22.664062 21.324219 23.660156 22.324219 24.886719 22.324219 C 26.113281 22.324219 27.109375 21.324219 27.109375 20.089844 C 27.109375 18.859375 26.113281 17.855469 24.886719 17.855469 Z M 25.449219 20.089844 C 25.449219 20.402344 25.195312 20.652344 24.886719 20.652344 C 24.574219 20.652344 24.320312 20.402344 24.320312 20.089844 C 24.320312 19.78125 24.574219 19.527344 24.886719 19.527344 C 25.195312 19.527344 25.449219 19.78125 25.449219 20.089844 Z M 25.449219 20.089844 " fill-opacity="1" fill-rule="nonzero"/><g clip-path="url(#92b3e45869)"><path fill="#000000" d="M 36.140625 11.585938 L 34.074219 8.304688 L 35.160156 7.585938 C 35.289062 7.5 35.328125 7.324219 35.246094 7.191406 L 34.542969 6.074219 L 35.628906 5.355469 C 35.757812 5.269531 35.792969 5.09375 35.710938 4.960938 L 35.03125 3.878906 C 34.988281 3.8125 34.925781 3.765625 34.851562 3.75 C 34.777344 3.734375 34.699219 3.75 34.636719 3.792969 L 33.554688 4.507812 L 32.855469 3.398438 C 32.816406 3.332031 32.75 3.285156 32.675781 3.269531 C 32.601562 3.253906 32.523438 3.269531 32.460938 3.3125 L 31.382812 4.027344 L 29.316406 0.75 C 29.277344 0.683594 29.210938 0.640625 29.136719 0.625 C 29.0625 0.605469 28.984375 0.621094 28.921875 0.664062 L 26.808594 2.066406 C 26.679688 2.152344 26.644531 2.324219 26.726562 2.457031 L 27.089844 3.035156 L 24.277344 4.980469 L 24.277344 4.046875 C 24.277344 3.890625 24.148438 3.761719 23.992188 3.761719 L 22.738281 3.761719 C 22.582031 3.761719 22.457031 3.890625 22.457031 4.046875 L 22.457031 5.019531 L 21.769531 5.019531 L 21.769531 4.046875 C 21.769531 3.890625 21.640625 3.761719 21.484375 3.761719 L 20.230469 3.761719 C 20.074219 3.761719 19.949219 3.890625 19.949219 4.046875 L 19.949219 5.019531 L 19.257812 5.019531 L 19.257812 4.046875 C 19.257812 3.890625 19.132812 3.761719 18.976562 3.761719 L 17.726562 3.761719 C 17.570312 3.761719 17.441406 3.890625 17.441406 4.046875 L 17.441406 5.019531 L 16.753906 5.019531 L 16.753906 4.046875 C 16.753906 3.890625 16.628906 3.761719 16.472656 3.761719 L 15.214844 3.761719 C 15.058594 3.761719 14.933594 3.890625 14.933594 4.046875 L 14.933594 5.019531 L 14.246094 5.019531 L 14.246094 4.046875 C 14.246094 3.890625 14.117188 3.761719 13.960938 3.761719 L 12.707031 3.761719 C 12.550781 3.761719 12.425781 3.890625 12.425781 4.046875 L 12.425781 4.980469 L 9.613281 3.035156 L 9.976562 2.457031 C 10.058594 2.324219 10.019531 2.148438 9.890625 2.066406 L 7.777344 0.664062 C 7.714844 0.621094 7.640625 0.605469 7.5625 0.621094 C 7.488281 0.640625 7.425781 0.683594 7.382812 0.75 L 5.320312 4.027344 L 4.238281 3.3125 C 4.175781 3.269531 4.097656 3.253906 4.023438 3.269531 C 3.949219 3.285156 3.886719 3.332031 3.84375 3.394531 L 3.144531 4.507812 L 2.066406 3.792969 C 2.003906 3.75 1.925781 3.734375 1.851562 3.75 C 1.777344 3.765625 1.710938 3.8125 1.671875 3.878906 L 0.988281 4.960938 C 0.90625 5.09375 0.941406 5.265625 1.074219 5.351562 L 2.160156 6.074219 L 1.457031 7.191406 C 1.371094 7.324219 1.410156 7.5 1.539062 7.585938 L 2.625 8.300781 L 0.558594 11.585938 C 0.476562 11.71875 0.511719 11.894531 0.640625 11.980469 L 2.757812 13.378906 C 2.804688 13.410156 2.859375 13.425781 2.914062 13.425781 C 2.933594 13.425781 2.953125 13.425781 2.972656 13.421875 C 3.046875 13.40625 3.109375 13.359375 3.152344 13.292969 L 3.503906 12.734375 L 6.03125 14.488281 L 5.1875 14.757812 C 5.113281 14.777344 5.054688 14.828125 5.019531 14.898438 C 4.984375 14.964844 4.980469 15.042969 5 15.117188 L 5.382812 16.316406 C 5.417969 16.4375 5.53125 16.515625 5.652344 16.515625 C 5.679688 16.515625 5.707031 16.511719 5.734375 16.503906 L 6.691406 16.199219 L 6.894531 16.855469 L 5.941406 17.15625 C 5.871094 17.179688 5.808594 17.230469 5.777344 17.300781 C 5.742188 17.367188 5.734375 17.445312 5.757812 17.519531 L 6.136719 18.714844 C 6.175781 18.835938 6.285156 18.914062 6.40625 18.914062 C 6.433594 18.914062 6.460938 18.910156 6.492188 18.902344 L 7.4375 18.605469 L 7.703125 19.464844 C 6.019531 20.109375 4.902344 21.714844 4.902344 23.550781 C 4.902344 25.867188 6.707031 27.765625 8.976562 27.910156 L 8.976562 31.414062 C 8.976562 31.742188 9.109375 32.058594 9.335938 32.285156 C 9.5625 32.511719 9.878906 32.644531 10.199219 32.644531 C 10.777344 32.644531 11.257812 32.242188 11.390625 31.699219 L 13.089844 31.699219 C 13.144531 31.921875 13.253906 32.125 13.410156 32.285156 C 13.640625 32.515625 13.949219 32.644531 14.277344 32.644531 C 14.851562 32.644531 15.335938 32.242188 15.464844 31.699219 L 17.164062 31.699219 C 17.21875 31.921875 17.328125 32.125 17.488281 32.285156 C 17.71875 32.515625 18.027344 32.644531 18.351562 32.644531 C 18.925781 32.644531 19.40625 32.242188 19.535156 31.699219 L 21.238281 31.699219 C 21.292969 31.921875 21.398438 32.125 21.558594 32.285156 C 21.785156 32.511719 22.101562 32.644531 22.425781 32.644531 C 23 32.644531 23.480469 32.242188 23.609375 31.699219 L 25.3125 31.699219 C 25.363281 31.921875 25.472656 32.125 25.636719 32.285156 C 25.867188 32.515625 26.175781 32.644531 26.5 32.644531 C 27.175781 32.644531 27.722656 32.09375 27.722656 31.414062 L 27.722656 23.59375 L 27.796875 23.355469 L 28.707031 23.644531 C 28.734375 23.652344 28.765625 23.65625 28.792969 23.65625 C 28.910156 23.65625 29.023438 23.578125 29.0625 23.457031 L 29.4375 22.257812 C 29.460938 22.1875 29.453125 22.109375 29.417969 22.039062 C 29.386719 21.972656 29.324219 21.921875 29.253906 21.898438 L 28.339844 21.609375 L 28.539062 20.953125 L 29.460938 21.246094 C 29.488281 21.253906 29.515625 21.257812 29.546875 21.257812 C 29.664062 21.257812 29.777344 21.179688 29.816406 21.058594 L 30.195312 19.859375 C 30.21875 19.785156 30.210938 19.707031 30.175781 19.636719 C 30.140625 19.570312 30.082031 19.519531 30.007812 19.496094 L 29.082031 19.207031 L 29.28125 18.550781 L 30.214844 18.84375 C 30.246094 18.855469 30.273438 18.859375 30.300781 18.859375 C 30.421875 18.859375 30.53125 18.78125 30.570312 18.660156 L 30.949219 17.457031 C 30.96875 17.386719 30.964844 17.308594 30.929688 17.238281 C 30.894531 17.171875 30.835938 17.121094 30.761719 17.097656 L 29.828125 16.800781 L 30.027344 16.144531 L 30.972656 16.445312 C 31 16.457031 31.027344 16.460938 31.058594 16.460938 C 31.175781 16.460938 31.289062 16.382812 31.328125 16.261719 L 31.703125 15.058594 C 31.726562 14.988281 31.71875 14.90625 31.683594 14.839844 C 31.648438 14.773438 31.589844 14.722656 31.519531 14.699219 L 30.730469 14.449219 L 33.199219 12.734375 L 33.550781 13.296875 C 33.589844 13.359375 33.65625 13.40625 33.730469 13.421875 C 33.75 13.425781 33.769531 13.429688 33.789062 13.429688 C 33.84375 13.429688 33.898438 13.414062 33.945312 13.382812 L 36.058594 11.980469 C 36.1875 11.894531 36.226562 11.71875 36.140625 11.585938 Z M 32.53125 3.949219 L 34.617188 7.261719 L 33.769531 7.820312 L 31.683594 4.511719 Z M 29.210938 16.875 C 29.207031 16.875 29.207031 16.878906 29.207031 16.878906 L 29.203125 16.890625 C 29.203125 16.894531 29.199219 16.898438 29.199219 16.902344 L 28.3125 19.773438 C 28.203125 18.601562 27.515625 17.5625 26.472656 17.019531 L 27.246094 14.511719 C 27.273438 14.433594 27.261719 14.34375 27.214844 14.269531 L 22.898438 7.664062 C 22.847656 7.585938 22.757812 7.535156 22.664062 7.535156 L 14.039062 7.535156 C 13.945312 7.535156 13.855469 7.585938 13.804688 7.664062 L 9.488281 14.269531 C 9.441406 14.34375 9.429688 14.433594 9.453125 14.511719 L 10.527344 17.976562 L 9.148438 19.179688 C 8.84375 19.1875 8.539062 19.226562 8.242188 19.296875 L 6.75 14.472656 L 12.546875 5.59375 L 24.15625 5.59375 L 29.953125 14.472656 Z M 11.425781 27.34375 C 12.117188 26.945312 12.675781 26.378906 13.054688 25.707031 L 13.054688 31.128906 L 11.425781 31.128906 Z M 11.730469 19.953125 L 11.179688 18.164062 L 15.90625 14.035156 C 15.886719 14.164062 15.875 14.296875 15.875 14.429688 C 15.875 15.238281 16.265625 15.992188 16.925781 16.460938 L 19.632812 19.378906 L 16.355469 21.378906 L 13.035156 21.378906 C 12.710938 20.8125 12.269531 20.324219 11.730469 19.953125 Z M 11.011719 19.542969 C 10.675781 19.394531 10.320312 19.292969 9.957031 19.234375 L 10.710938 18.574219 Z M 27.339844 22.914062 L 27.234375 23.265625 L 26.246094 23.265625 C 26.746094 23.046875 27.1875 22.714844 27.53125 22.296875 L 27.34375 22.910156 C 27.339844 22.914062 27.339844 22.914062 27.339844 22.914062 Z M 14.355469 23.265625 L 16.511719 21.949219 L 21.992188 21.949219 C 22.367188 22.539062 22.90625 22.996094 23.53125 23.265625 Z M 18.351562 16.917969 C 19.714844 16.917969 20.828125 15.800781 20.828125 14.429688 C 20.828125 14.296875 20.816406 14.164062 20.796875 14.035156 L 24.167969 16.710938 C 23.511719 16.855469 22.902344 17.1875 22.429688 17.671875 L 20.128906 19.074219 L 18.109375 16.898438 C 18.1875 16.90625 18.269531 16.917969 18.351562 16.917969 Z M 21.695312 18.789062 C 21.53125 19.199219 21.441406 19.636719 21.441406 20.089844 C 21.441406 20.234375 21.453125 20.378906 21.46875 20.519531 L 20.523438 19.503906 Z M 21.488281 21.378906 L 17.449219 21.378906 L 20.027344 19.804688 Z M 24.886719 22.976562 C 23.859375 22.976562 22.898438 22.417969 22.386719 21.519531 C 22.140625 21.085938 22.007812 20.589844 22.007812 20.089844 C 22.007812 19.347656 22.292969 18.640625 22.804688 18.101562 C 23.351562 17.523438 24.089844 17.203125 24.886719 17.203125 C 25.273438 17.203125 25.65625 17.28125 26.015625 17.4375 C 27.078125 17.890625 27.761719 18.933594 27.761719 20.089844 C 27.761719 21.683594 26.472656 22.976562 24.886719 22.976562 Z M 25.945312 16.800781 C 25.636719 16.703125 25.316406 16.648438 24.988281 16.636719 L 20.328125 12.933594 C 19.859375 12.3125 19.125 11.941406 18.351562 11.941406 C 17.679688 11.941406 17.03125 12.21875 16.5625 12.707031 L 10.992188 17.570312 L 10.035156 14.472656 L 14.191406 8.109375 L 22.511719 8.109375 L 26.667969 14.472656 Z M 15.414062 21.949219 L 13.589844 23.0625 C 13.546875 22.679688 13.453125 22.304688 13.3125 21.949219 Z M 15.5 23.835938 L 17.128906 23.835938 L 17.128906 31.128906 L 15.5 31.128906 Z M 19.574219 23.835938 L 21.203125 23.835938 L 21.203125 31.128906 L 19.574219 31.128906 Z M 23.648438 23.835938 L 25.277344 23.835938 L 25.277344 31.128906 L 23.648438 31.128906 Z M 2.085938 7.261719 L 4.167969 3.949219 L 5.015625 4.511719 L 2.929688 7.820312 Z M 4.875 10.558594 L 6.746094 11.800781 C 6.792969 11.832031 6.847656 11.847656 6.902344 11.847656 C 6.992188 11.847656 7.085938 11.800781 7.136719 11.714844 C 7.222656 11.585938 7.1875 11.40625 7.058594 11.320312 L 5.175781 10.078125 L 6.410156 8.121094 L 8.285156 9.359375 C 8.332031 9.390625 8.386719 9.40625 8.4375 9.40625 C 8.53125 9.40625 8.621094 9.363281 8.675781 9.277344 C 8.761719 9.144531 8.726562 8.96875 8.59375 8.882812 L 6.714844 7.636719 L 7.945312 5.683594 L 9.820312 6.921875 C 9.867188 6.953125 9.921875 6.96875 9.972656 6.96875 C 10.066406 6.96875 10.15625 6.921875 10.210938 6.839844 C 10.296875 6.707031 10.257812 6.527344 10.128906 6.441406 L 8.25 5.199219 L 9.308594 3.519531 L 12.003906 5.382812 L 6.363281 14.027344 L 3.808594 12.25 Z M 5.46875 23.550781 C 5.46875 21.871094 6.542969 20.410156 8.136719 19.917969 C 8.148438 19.914062 8.160156 19.910156 8.171875 19.90625 C 8.523438 19.800781 8.890625 19.746094 9.261719 19.746094 C 10.003906 19.746094 10.71875 19.960938 11.332031 20.363281 C 11.878906 20.722656 12.328125 21.21875 12.625 21.796875 C 12.90625 22.332031 13.054688 22.941406 13.054688 23.550781 C 13.054688 24.972656 12.273438 26.265625 11.011719 26.921875 C 10.46875 27.210938 9.882812 27.355469 9.261719 27.355469 C 7.167969 27.355469 5.46875 25.648438 5.46875 23.550781 Z M 30.339844 14.027344 L 24.695312 5.382812 L 27.394531 3.519531 L 28.453125 5.199219 L 26.574219 6.441406 C 26.441406 6.527344 26.40625 6.707031 26.492188 6.839844 C 26.546875 6.921875 26.636719 6.96875 26.726562 6.96875 C 26.78125 6.96875 26.835938 6.953125 26.882812 6.921875 L 28.757812 5.683594 L 29.988281 7.636719 L 28.109375 8.882812 C 27.976562 8.96875 27.941406 9.144531 28.027344 9.277344 C 28.082031 9.363281 28.171875 9.40625 28.261719 9.40625 C 28.316406 9.40625 28.371094 9.390625 28.417969 9.359375 L 30.292969 8.121094 L 31.523438 10.078125 L 29.644531 11.320312 C 29.515625 11.40625 29.476562 11.585938 29.5625 11.714844 C 29.617188 11.800781 29.707031 11.847656 29.800781 11.847656 C 29.855469 11.847656 29.90625 11.832031 29.957031 11.800781 L 31.828125 10.558594 L 32.894531 12.25 Z M 30.339844 14.027344 " fill-opacity="1" fill-rule="nonzero"/></g></g></g></g></g><g clip-path="url(#68e94b4c4a)"><path fill="#545454" d="M 5.140625 31.5625 C 5.089844 31.46875 5.0625 31.367188 5.0625 31.253906 Z M 17.601562 27.949219 L 17.605469 27.949219 Z M 1.867188 25.242188 L 1.871094 25.242188 C 1.757812 25.433594 1.75 25.679688 1.867188 25.882812 L 5.140625 31.5625 C 5.25 31.761719 5.460938 31.894531 5.703125 31.894531 L 15.914062 31.894531 C 16.269531 31.894531 16.554688 31.609375 16.554688 31.253906 L 16.554688 25.632812 C 16.554688 25.613281 16.558594 25.59375 16.558594 25.574219 C 16.558594 25.21875 16.269531 24.929688 15.914062 24.929688 L 10.09375 24.929688 L 11.132812 23.128906 L 12.542969 23.941406 C 12.679688 24.019531 12.847656 24.046875 13.011719 24.007812 C 13.355469 23.929688 13.566406 23.582031 13.484375 23.238281 L 11.765625 16.046875 C 11.761719 16.023438 11.757812 16.003906 11.75 15.980469 C 11.652344 15.640625 11.296875 15.449219 10.957031 15.546875 L 3.835938 17.664062 C 3.683594 17.710938 3.546875 17.8125 3.460938 17.960938 C 3.285156 18.265625 3.390625 18.65625 3.699219 18.832031 L 5.105469 19.644531 Z M 8.972656 26.214844 L 15.273438 26.214844 L 15.273438 30.617188 L 6.074219 30.617188 L 3.53125 26.207031 Z M 3.53125 24.925781 L 6.535156 19.734375 C 6.710938 19.429688 6.609375 19.035156 6.300781 18.859375 L 6.265625 18.839844 L 5.625 18.46875 L 10.671875 16.96875 L 11.894531 22.085938 L 11.222656 21.699219 C 10.914062 21.519531 10.523438 21.625 10.347656 21.933594 L 10.328125 21.96875 L 8.613281 24.933594 Z M 27.855469 25.308594 L 30.542969 29.980469 L 33.089844 25.574219 L 28.492188 17.605469 L 24.679688 19.804688 L 27.796875 25.203125 C 27.816406 25.234375 27.839844 25.269531 27.855469 25.308594 Z M 29.4375 30.621094 L 23.4375 30.617188 C 23.082031 30.617188 22.796875 30.902344 22.796875 31.253906 L 22.796875 32.035156 L 18.976562 28.414062 L 22.796875 24.796875 L 22.796875 25.574219 C 22.796875 25.925781 23.082031 26.214844 23.4375 26.214844 L 26.902344 26.214844 Z M 17.566406 9.53125 L 20.171875 4.800781 L 15.214844 4.800781 L 10.613281 12.765625 L 14.425781 14.964844 Z M 21.347656 5.324219 L 24.390625 10.605469 L 24.410156 10.640625 C 24.585938 10.945312 24.980469 11.050781 25.285156 10.871094 L 25.960938 10.484375 L 24.734375 15.601562 L 19.691406 14.101562 L 20.332031 13.730469 L 20.367188 13.714844 C 20.671875 13.535156 20.777344 13.144531 20.597656 12.835938 L 18.863281 9.832031 Z M 30.503906 31.898438 L 24.078125 31.894531 L 24.078125 33.523438 C 24.078125 33.875 23.789062 34.164062 23.4375 34.164062 C 23.265625 34.164062 23.109375 34.09375 22.996094 33.984375 L 22.996094 33.988281 L 17.601562 28.878906 C 17.34375 28.636719 17.335938 28.230469 17.578125 27.972656 L 17.605469 27.949219 L 22.996094 22.84375 C 23.25 22.597656 23.65625 22.609375 23.902344 22.867188 C 24.027344 22.996094 24.085938 23.167969 24.078125 23.339844 L 24.078125 24.929688 L 26.160156 24.929688 L 23.25 19.890625 C 23.074219 19.585938 23.179688 19.195312 23.484375 19.019531 L 23.484375 19.015625 L 28.402344 16.175781 C 28.710938 16 29.101562 16.101562 29.28125 16.410156 L 34.386719 25.253906 C 34.507812 25.460938 34.496094 25.707031 34.382812 25.902344 L 31.097656 31.582031 C 30.972656 31.796875 30.738281 31.914062 30.503906 31.898438 Z M 17.761719 13.738281 L 19.167969 12.925781 L 18.128906 11.121094 L 15.214844 16.164062 L 15.214844 16.160156 C 15.039062 16.464844 14.648438 16.570312 14.34375 16.394531 L 9.421875 13.554688 C 9.117188 13.378906 9.011719 12.988281 9.1875 12.683594 L 14.261719 3.890625 C 14.363281 3.667969 14.585938 3.515625 14.847656 3.515625 L 21.277344 3.515625 L 21.4375 3.523438 C 21.648438 3.53125 21.855469 3.644531 21.96875 3.84375 L 25.199219 9.441406 L 26.605469 8.628906 L 26.605469 8.632812 C 26.742188 8.550781 26.910156 8.523438 27.074219 8.5625 C 27.417969 8.644531 27.632812 8.988281 27.550781 9.332031 L 25.832031 16.523438 C 25.828125 16.546875 25.824219 16.566406 25.816406 16.589844 C 25.714844 16.929688 25.359375 17.125 25.019531 17.023438 L 17.898438 14.90625 L 17.902344 14.90625 C 17.75 14.859375 17.613281 14.757812 17.527344 14.609375 C 17.351562 14.304688 17.457031 13.914062 17.761719 13.738281 Z M 17.761719 13.738281 " fill-opacity="1" fill-rule="evenodd"/></g></svg>