<svg xmlns="http://www.w3.org/2000/svg" xmlns:xlink="http://www.w3.org/1999/xlink" width="48" zoomAndPan="magnify" viewBox="0 0 36 36.000001" height="48" preserveAspectRatio="xMidYMid meet" version="1.0"><defs><clipPath id="886b290300"><path d="M 19 19 L 34.566406 19 L 34.566406 34.152344 L 19 34.152344 Z M 19 19 " clip-rule="nonzero"/></clipPath><clipPath id="8ed19d56cb"><path d="M 1.726562 1.3125 L 34.566406 1.3125 L 34.566406 34.152344 L 1.726562 34.152344 Z M 1.726562 1.3125 " clip-rule="nonzero"/></clipPath><clipPath id="78acd43004"><path d="M 1.726562 16 L 9 16 L 9 19 L 1.726562 19 Z M 1.726562 16 " clip-rule="nonzero"/></clipPath><clipPath id="e7e52657dc"><path d="M 0.488281 12.550781 L 19.390625 12.550781 L 19.390625 35.027344 L 0.488281 35.027344 Z M 0.488281 12.550781 " clip-rule="nonzero"/></clipPath></defs><path fill="#545454" d="M 28.707031 26.808594 C 28.707031 27.003906 28.667969 27.195312 28.59375 27.375 C 28.519531 27.558594 28.410156 27.71875 28.273438 27.859375 C 28.132812 27.996094 27.972656 28.105469 27.789062 28.179688 C 27.609375 28.253906 27.417969 28.292969 27.222656 28.292969 C 27.023438 28.292969 26.835938 28.253906 26.652344 28.179688 C 26.472656 28.105469 26.3125 27.996094 26.171875 27.859375 C 26.03125 27.71875 25.925781 27.558594 25.851562 27.375 C 25.773438 27.195312 25.738281 27.003906 25.738281 26.808594 C 25.738281 26.609375 25.773438 26.421875 25.851562 26.238281 C 25.925781 26.058594 26.03125 25.898438 26.171875 25.757812 C 26.3125 25.617188 26.472656 25.511719 26.652344 25.4375 C 26.835938 25.359375 27.023438 25.324219 27.222656 25.324219 C 27.417969 25.324219 27.609375 25.359375 27.789062 25.4375 C 27.972656 25.511719 28.132812 25.617188 28.273438 25.757812 C 28.410156 25.898438 28.519531 26.058594 28.59375 26.238281 C 28.667969 26.421875 28.707031 26.609375 28.707031 26.808594 Z M 28.707031 26.808594 " fill-opacity="1" fill-rule="nonzero"/><g clip-path="url(#886b290300)"><path fill="#545454" d="M 34.128906 25.421875 L 32.808594 24.824219 C 32.742188 24.632812 32.664062 24.441406 32.574219 24.257812 L 33.085938 22.90625 C 33.191406 22.632812 33.125 22.324219 32.917969 22.117188 L 31.910156 21.113281 C 31.703125 20.90625 31.398438 20.839844 31.125 20.945312 L 29.769531 21.457031 C 29.585938 21.367188 29.398438 21.289062 29.203125 21.222656 L 28.609375 19.902344 C 28.488281 19.636719 28.226562 19.464844 27.933594 19.464844 L 26.511719 19.464844 C 26.21875 19.464844 25.953125 19.636719 25.832031 19.902344 L 25.238281 21.222656 C 25.046875 21.289062 24.855469 21.367188 24.671875 21.457031 L 23.320312 20.945312 C 23.046875 20.839844 22.738281 20.90625 22.53125 21.113281 L 21.527344 22.117188 C 21.320312 22.324219 21.253906 22.632812 21.355469 22.90625 L 21.867188 24.257812 C 21.78125 24.441406 21.703125 24.632812 21.632812 24.824219 L 20.316406 25.421875 C 20.050781 25.539062 19.878906 25.804688 19.878906 26.097656 L 19.878906 27.519531 C 19.878906 27.8125 20.050781 28.074219 20.316406 28.195312 L 21.632812 28.789062 C 21.703125 28.984375 21.78125 29.171875 21.867188 29.359375 L 21.355469 30.710938 C 21.253906 30.984375 21.320312 31.292969 21.527344 31.496094 L 22.53125 32.503906 C 22.738281 32.710938 23.046875 32.777344 23.320312 32.671875 L 24.671875 32.160156 C 24.855469 32.25 25.046875 32.328125 25.238281 32.394531 L 25.832031 33.714844 C 25.953125 33.980469 26.21875 34.152344 26.511719 34.152344 L 27.933594 34.152344 C 28.226562 34.152344 28.488281 33.980469 28.609375 33.714844 L 29.203125 32.394531 C 29.398438 32.328125 29.585938 32.25 29.769531 32.160156 L 31.125 32.671875 C 31.398438 32.777344 31.703125 32.710938 31.910156 32.503906 L 32.917969 31.496094 C 33.125 31.292969 33.191406 30.984375 33.085938 30.710938 L 32.574219 29.359375 C 32.664062 29.171875 32.742188 28.984375 32.808594 28.789062 L 34.128906 28.195312 C 34.394531 28.074219 34.566406 27.8125 34.566406 27.519531 L 34.566406 26.097656 C 34.566406 25.804688 34.394531 25.539062 34.128906 25.421875 Z M 33.078125 27.039062 L 31.898438 27.574219 C 31.699219 27.664062 31.550781 27.835938 31.488281 28.042969 C 31.398438 28.359375 31.273438 28.667969 31.113281 28.953125 C 31.007812 29.144531 30.992188 29.371094 31.070312 29.574219 L 31.527344 30.785156 L 31.199219 31.113281 L 29.988281 30.65625 C 29.785156 30.578125 29.558594 30.59375 29.367188 30.699219 C 29.082031 30.859375 28.773438 30.984375 28.457031 31.078125 C 28.246094 31.136719 28.074219 31.285156 27.984375 31.484375 L 27.453125 32.667969 L 26.992188 32.667969 L 26.457031 31.484375 C 26.367188 31.285156 26.195312 31.136719 25.984375 31.078125 C 25.667969 30.984375 25.363281 30.859375 25.078125 30.699219 C 24.886719 30.59375 24.660156 30.578125 24.457031 30.65625 L 23.242188 31.113281 L 22.914062 30.785156 L 23.375 29.574219 C 23.453125 29.371094 23.433594 29.144531 23.328125 28.953125 C 23.171875 28.667969 23.046875 28.359375 22.953125 28.042969 C 22.894531 27.835938 22.742188 27.664062 22.546875 27.574219 L 21.363281 27.039062 L 21.363281 26.578125 L 22.546875 26.042969 C 22.742188 25.953125 22.894531 25.78125 22.953125 25.574219 C 23.046875 25.253906 23.171875 24.949219 23.328125 24.664062 C 23.433594 24.472656 23.453125 24.246094 23.375 24.042969 L 22.914062 22.828125 L 23.242188 22.503906 L 24.457031 22.960938 C 24.660156 23.039062 24.886719 23.023438 25.078125 22.917969 C 25.363281 22.757812 25.667969 22.632812 25.988281 22.539062 C 26.195312 22.480469 26.367188 22.332031 26.457031 22.132812 L 26.992188 20.949219 L 27.453125 20.949219 L 27.984375 22.132812 C 28.074219 22.332031 28.246094 22.480469 28.457031 22.539062 C 28.773438 22.632812 29.082031 22.757812 29.367188 22.917969 C 29.558594 23.023438 29.785156 23.039062 29.988281 22.960938 L 31.199219 22.503906 L 31.527344 22.828125 L 31.070312 24.042969 C 30.992188 24.246094 31.007812 24.472656 31.113281 24.664062 C 31.273438 24.949219 31.398438 25.253906 31.488281 25.574219 C 31.550781 25.78125 31.699219 25.953125 31.898438 26.042969 L 33.078125 26.578125 Z M 33.078125 27.039062 " fill-opacity="1" fill-rule="nonzero"/></g><g clip-path="url(#8ed19d56cb)"><path fill="#545454" d="M 17.320312 28.480469 L 16.460938 28.480469 C 17.324219 25.429688 17.773438 21.527344 17.773438 17.734375 C 17.773438 13.941406 17.324219 10.035156 16.460938 6.984375 L 30.25 6.984375 C 30.714844 6.984375 31.457031 7.863281 32.066406 9.828125 C 32.71875 11.929688 33.078125 14.734375 33.078125 17.734375 C 33.078125 18.269531 33.066406 18.808594 33.042969 19.335938 C 33.027344 19.746094 33.34375 20.09375 33.753906 20.113281 C 33.765625 20.113281 33.777344 20.113281 33.785156 20.113281 C 34.183594 20.113281 34.511719 19.800781 34.527344 19.402344 C 34.550781 18.851562 34.566406 18.289062 34.566406 17.734375 C 34.566406 11.652344 33.082031 5.496094 30.25 5.496094 L 15.984375 5.496094 C 15.054688 2.964844 13.769531 1.3125 12.15625 1.3125 L 7.339844 1.3125 C 6.3125 1.3125 4.824219 2.011719 3.566406 5.328125 C 2.683594 7.644531 2.070312 10.859375 1.835938 14.382812 C 1.808594 14.792969 2.121094 15.144531 2.527344 15.171875 C 2.9375 15.199219 3.292969 14.890625 3.320312 14.480469 C 3.800781 7.265625 5.78125 2.796875 7.339844 2.796875 C 9.066406 2.796875 11.46875 8.480469 11.46875 17.734375 C 11.46875 26.984375 9.066406 32.667969 7.339844 32.667969 C 5.78125 32.667969 3.800781 28.199219 3.320312 20.984375 C 3.292969 20.574219 2.9375 20.265625 2.527344 20.292969 C 2.121094 20.320312 1.808594 20.671875 1.835938 21.082031 C 2.070312 24.605469 2.683594 27.820312 3.566406 30.136719 C 4.824219 33.453125 6.3125 34.152344 7.339844 34.152344 L 12.15625 34.152344 C 13.769531 34.152344 15.054688 32.5 15.984375 29.96875 L 17.320312 29.96875 C 17.730469 29.96875 18.0625 29.632812 18.0625 29.222656 C 18.0625 28.8125 17.730469 28.480469 17.320312 28.480469 Z M 12.15625 32.667969 L 9.785156 32.667969 C 11.859375 29.894531 12.953125 23.675781 12.953125 17.734375 C 12.953125 11.789062 11.859375 5.570312 9.785156 2.796875 L 12.15625 2.796875 C 13.882812 2.796875 16.285156 8.480469 16.285156 17.734375 C 16.285156 26.984375 13.882812 32.667969 12.15625 32.667969 Z M 12.15625 32.667969 " fill-opacity="1" fill-rule="nonzero"/></g><g clip-path="url(#78acd43004)"><path fill="#545454" d="M 2.46875 18.476562 L 7.339844 18.476562 C 7.75 18.476562 8.082031 18.140625 8.082031 17.734375 C 8.082031 17.324219 7.75 16.988281 7.339844 16.988281 L 2.46875 16.988281 C 2.058594 16.988281 1.726562 17.324219 1.726562 17.734375 C 1.726562 18.140625 2.058594 18.476562 2.46875 18.476562 Z M 2.46875 18.476562 " fill-opacity="1" fill-rule="nonzero"/></g><path fill="#545454" d="M 22.210938 10.042969 C 21.800781 10.042969 21.46875 10.375 21.46875 10.785156 C 21.46875 11.195312 21.800781 11.527344 22.210938 11.527344 L 28.152344 11.527344 C 28.5625 11.527344 28.894531 11.195312 28.894531 10.785156 C 28.894531 10.375 28.5625 10.042969 28.152344 10.042969 Z M 22.210938 10.042969 " fill-opacity="1" fill-rule="nonzero"/><g clip-path="url(#e7e52657dc)"><path fill="#b4b4b4" d="M 14.113281 12.667969 C 12.898438 13.125 11.945312 13.714844 11.1875 14.480469 C 10.621094 15.058594 10.339844 15.492188 10.105469 16.171875 C 9.976562 16.539062 9.96875 16.644531 9.96875 17.269531 C 9.96875 17.808594 9.992188 18.054688 10.085938 18.417969 C 10.332031 19.386719 10.167969 20.214844 9.566406 21.097656 C 9.476562 21.222656 8.773438 22.050781 7.996094 22.9375 C 7.226562 23.820312 6.234375 24.960938 5.796875 25.464844 C 1.867188 29.996094 0.125 31.972656 -0.125 32.179688 C -0.839844 32.777344 -1.308594 32.941406 -2.5 33 C -3.5 33.050781 -3.785156 33.117188 -4.464844 33.441406 C -4.882812 33.640625 -5.015625 33.746094 -5.441406 34.167969 C -5.871094 34.601562 -5.960938 34.726562 -6.191406 35.195312 C -6.695312 36.214844 -6.902344 37.304688 -6.84375 38.667969 C -6.828125 39.101562 -6.800781 39.527344 -6.773438 39.609375 C -6.71875 39.8125 -6.503906 39.964844 -6.339844 39.925781 C -6.207031 39.894531 -6.171875 39.832031 -4.730469 37.519531 C -4.503906 37.152344 -4.277344 36.8125 -4.21875 36.757812 C -4.117188 36.671875 -4.050781 36.671875 -2.972656 36.722656 C -1.644531 36.792969 -1.601562 36.796875 -1.46875 36.945312 C -1.3125 37.113281 -0.378906 38.96875 -0.378906 39.101562 C -0.378906 39.164062 -0.8125 39.914062 -1.347656 40.773438 C -1.925781 41.703125 -2.320312 42.378906 -2.320312 42.457031 C -2.320312 42.632812 -2.167969 42.753906 -1.953125 42.753906 C -1.527344 42.753906 -0.210938 42.1875 0.566406 41.675781 C 1.0625 41.347656 1.75 40.695312 2.046875 40.277344 C 2.773438 39.253906 2.957031 38.289062 2.691406 36.855469 C 2.566406 36.1875 2.578125 35.847656 2.734375 35.335938 C 2.847656 34.96875 3.140625 34.449219 3.441406 34.082031 C 3.671875 33.796875 5.515625 31.65625 7.101562 29.832031 C 8.125 28.664062 10.039062 26.445312 10.75 25.625 C 12.601562 23.472656 12.949219 23.109375 13.476562 22.792969 C 13.96875 22.5 14.433594 22.367188 15.171875 22.320312 C 16.613281 22.222656 17.394531 21.9375 18.140625 21.238281 C 19.101562 20.339844 19.585938 19.101562 19.671875 17.320312 C 19.703125 16.675781 19.625 15.597656 19.539062 15.429688 C 19.511719 15.378906 19.421875 15.3125 19.335938 15.277344 C 19.207031 15.226562 19.160156 15.226562 19.0625 15.292969 C 18.996094 15.332031 18.523438 16.074219 18.007812 16.929688 C 17.492188 17.792969 17.027344 18.523438 16.976562 18.550781 C 16.910156 18.585938 16.460938 18.589844 15.671875 18.566406 C 14.550781 18.53125 14.460938 18.523438 14.351562 18.421875 C 14.160156 18.253906 13.140625 16.402344 13.132812 16.222656 C 13.132812 16.113281 13.378906 15.648438 13.957031 14.664062 C 15.070312 12.757812 15.015625 12.871094 14.855469 12.683594 C 14.710938 12.515625 14.542969 12.507812 14.113281 12.667969 Z M 14.113281 12.667969 " fill-opacity="1" fill-rule="nonzero"/></g></svg>