<svg xmlns="http://www.w3.org/2000/svg" xmlns:xlink="http://www.w3.org/1999/xlink" width="48" zoomAndPan="magnify" viewBox="0 0 36 36.000001" height="48" preserveAspectRatio="xMidYMid meet" version="1.0"><defs><clipPath id="eb8f3cc9c0"><path d="M 1.820312 0 L 33.929688 0 L 33.929688 35.027344 L 1.820312 35.027344 Z M 1.820312 0 " clip-rule="nonzero"/></clipPath></defs><g clip-path="url(#eb8f3cc9c0)"><path fill="#545454" d="M 30.964844 29.328125 C 26.964844 36.320312 20.589844 34.835938 13.875 34.9375 C 1.324219 33.796875 -0.808594 15.261719 4.636719 6.320312 C 6.667969 2.667969 10.285156 -0.128906 14.601562 0.0273438 C 14.601562 0.0273438 22.171875 0.0507812 22.171875 0.0507812 C 35.023438 1.480469 36.851562 20.261719 30.964844 29.328125 Z M 2.890625 20.132812 C 2.980469 21.101562 3.097656 21.921875 3.332031 22.742188 C 4.203125 22.769531 6.824219 24.269531 5.992188 24.925781 C 5.394531 25.394531 4.960938 24.070312 3.660156 23.867188 C 4.652344 27.664062 4.335938 25.28125 7.265625 27.535156 C 7.5 27.746094 7.457031 28.082031 7.261719 28.238281 C 6.726562 28.667969 6.234375 27.503906 5.089844 27.441406 C 5.394531 28.1875 5.777344 28.726562 6.191406 29.34375 C 6.882812 29.433594 9.265625 29.902344 9.050781 30.757812 C 8.8125 31.683594 7.851562 30.441406 7.289062 30.671875 C 7.617188 31.039062 7.925781 31.527344 8.394531 31.679688 C 9.269531 31.917969 11.957031 32.058594 10.546875 33.21875 C 11.429688 33.675781 12.371094 34.050781 13.484375 33.886719 C 3.625 27.632812 3.539062 7.179688 13.726562 1.054688 C 12.339844 1.078125 10.960938 1.472656 9.742188 2.265625 C 9.921875 2.726562 10.492188 3.644531 9.722656 3.746094 C 9.199219 3.742188 9.183594 2.644531 8.796875 2.902344 C 8.035156 3.410156 7.46875 4.089844 6.878906 4.726562 C 7.261719 5.15625 8.359375 6.007812 7.753906 6.628906 C 7.023438 7.171875 6.996094 5.394531 6.230469 5.679688 C 5.65625 6.386719 5.234375 7.152344 4.894531 7.960938 C 5.972656 8.371094 6.96875 10.074219 6.0625 10.160156 C 5.277344 10.230469 5.808594 9.371094 4.484375 8.84375 C 4.121094 9.644531 3.8125 10.429688 3.609375 11.371094 C 4.398438 11.625 6.210938 13.300781 5.292969 13.726562 C 4.554688 14.066406 4.65625 12.648438 3.332031 12.382812 C 3.101562 13.328125 2.957031 14.183594 2.902344 15.144531 C 3.800781 15.527344 4.640625 16.003906 5.082031 16.894531 C 5.21875 17.167969 5.167969 17.503906 4.90625 17.589844 C 4.277344 17.792969 4.074219 16.421875 2.796875 16.207031 C 2.753906 17.15625 2.722656 18.066406 2.800781 19.03125 C 3.542969 19.1875 5.894531 20.453125 5.28125 21.300781 C 4.53125 21.824219 4.351562 20.269531 2.890625 20.132812 Z M 10.65625 18.863281 L 10.601562 16.214844 C 9.15625 16.363281 8.742188 18.078125 8.0625 17.511719 C 7.480469 17.03125 8.988281 15.628906 10.253906 15.308594 C 10.558594 15.234375 10.742188 15.074219 10.761719 14.746094 C 10.816406 13.988281 10.957031 13.289062 11.078125 12.535156 C 9.523438 12.675781 9.152344 14.078125 8.492188 13.691406 C 7.628906 12.847656 10.585938 11.441406 11.320312 11.480469 L 12.015625 9.132812 C 10.613281 9.015625 9.957031 10.464844 9.417969 10.019531 C 9.28125 9.902344 9.175781 9.59375 9.34375 9.40625 C 10.679688 7.933594 12.371094 8.289062 12.558594 7.84375 C 12.839844 7.1875 13.136719 6.621094 13.53125 5.96875 C 12.3125 5.835938 11.285156 7.199219 10.910156 6.523438 C 10.410156 5.617188 13.472656 4.792969 14.25 4.890625 L 15.332031 3.367188 C 14.628906 3.144531 13.730469 4.265625 13.382812 3.484375 C 12.957031 2.53125 16.03125 2.207031 16.59375 2.117188 C 17.265625 1.9375 17.773438 1.3125 18.386719 1.035156 C 3.238281 1.078125 3.261719 34.023438 18.351562 33.945312 C 17.480469 33.445312 16.792969 32.882812 16.046875 32.277344 C 15.382812 32.335938 15.175781 33.390625 14.621094 33.054688 C 13.921875 32.53125 14.800781 31.839844 15.378906 31.570312 L 13.988281 29.84375 C 13.039062 29.953125 12.941406 31.507812 12.261719 30.925781 C 11.609375 30.375 12.859375 29.3125 13.492188 28.992188 L 12.394531 26.886719 C 11.117188 27.011719 11.316406 28.5625 10.464844 28.175781 C 9.703125 27.410156 11.320312 26.191406 12.042969 25.894531 L 11.300781 23.503906 C 9.699219 23.851562 9.988281 25.210938 9.183594 24.945312 C 8.171875 24.304688 10.429688 22.613281 11.125 22.457031 L 10.710938 19.980469 C 9.875 20.054688 9.324219 20.667969 8.863281 21.3125 C 8.722656 21.515625 8.308594 21.378906 8.191406 21.207031 C 7.757812 20.574219 9.792969 19.011719 10.652344 18.867188 Z M 26.730469 32.523438 C 38.566406 24.621094 32.902344 -4.863281 18.296875 2.207031 C 9.757812 8.453125 9.480469 23.4375 16.261719 31.054688 C 19.285156 34.179688 23.097656 35.054688 26.730469 32.523438 Z M 26.730469 32.523438 " fill-opacity="1" fill-rule="nonzero"/></g><path fill="#545454" d="M 30.894531 21.972656 C 29.203125 30.859375 19.5625 34.175781 15.585938 24.773438 C 12.742188 18.222656 13.625 7.527344 21.167969 4.6875 C 24.871094 3.679688 27.933594 6.214844 29.554688 9.347656 C 31.523438 13.203125 31.929688 17.765625 30.894531 21.972656 Z M 24.605469 23.238281 L 26.390625 28.109375 C 27.34375 27.292969 28.015625 26.371094 28.601562 25.304688 L 25.832031 21.535156 C 25.015625 20.421875 25.207031 19.269531 25.683594 18.023438 C 25.941406 17.359375 26.441406 16.90625 27.132812 16.75 L 30.382812 16.007812 C 30.289062 14.566406 30.078125 13.195312 29.539062 11.882812 C 28.464844 12.65625 27.550781 13.460938 26.570312 14.25 C 26.121094 14.609375 25.585938 14.714844 25.035156 14.460938 C 24.132812 13.902344 23.363281 12.90625 23.496094 11.777344 L 24.214844 5.664062 C 23.210938 5.382812 22.152344 5.382812 21.199219 5.71875 L 21.957031 11.644531 C 22.101562 12.746094 21.410156 13.761719 20.570312 14.398438 C 20.089844 14.664062 19.535156 14.734375 19.097656 14.390625 L 15.960938 11.902344 C 15.476562 13.207031 15.222656 14.554688 15.132812 16.007812 L 18.335938 16.789062 C 18.925781 16.929688 19.382812 17.230469 19.652344 17.792969 C 20.246094 19.035156 20.425781 20.417969 19.585938 21.59375 C 19.054688 22.414062 17.417969 24.515625 16.921875 25.320312 C 17.476562 26.363281 18.167969 27.308594 19.082031 28.078125 L 20.9375 23.042969 C 21.242188 22.214844 21.996094 21.742188 22.8125 21.789062 C 23.628906 21.835938 24.273438 22.335938 24.605469 23.238281 Z M 29.183594 10.824219 C 28.46875 9.039062 26.878906 6.707031 25.144531 6.074219 C 25.042969 6.527344 25.007812 6.894531 24.984375 7.339844 C 26.375 8.5625 27.261719 10.101562 27.871094 11.902344 C 28.328125 11.5625 28.753906 11.292969 29.183594 10.824219 Z M 19.984375 13.605469 C 20.828125 13.175781 21.105469 12.191406 20.996094 11.339844 L 20.410156 6.675781 C 20.265625 5.539062 18.386719 7.542969 18.121094 7.867188 C 17.367188 8.792969 16.765625 9.78125 16.316406 10.917969 L 19.128906 13.238281 C 19.3125 13.390625 19.675781 13.761719 19.984375 13.605469 Z M 27.070312 12.472656 C 26.578125 11.035156 25.929688 9.675781 24.855469 8.574219 L 24.464844 11.472656 C 24.351562 12.300781 24.695312 13.21875 25.457031 13.582031 C 25.894531 13.789062 26.847656 12.8125 27.070312 12.472656 Z M 18.324219 17.785156 C 17.242188 17.441406 16.167969 17.316406 15.046875 17.027344 C 15 19.535156 15.398438 21.910156 16.421875 24.3125 C 17.3125 23.113281 18.203125 21.957031 19.035156 20.703125 C 19.460938 20.0625 19.089844 18.027344 18.324219 17.785156 Z M 28.003906 22.867188 C 28.171875 23.039062 28.804688 24.28125 29.085938 24.25 C 30.164062 22.035156 30.480469 19.519531 30.460938 17.042969 L 28.882812 17.375 C 28.828125 18.984375 28.648438 20.546875 28.121094 22.082031 C 28.046875 22.304688 27.820312 22.59375 28.003906 22.867188 Z M 27.210938 21.8125 C 27.636719 20.519531 27.867188 19.207031 27.898438 17.667969 C 26.460938 17.363281 26.003906 19.375 26.316406 20.445312 C 26.46875 20.972656 26.882812 21.28125 27.210938 21.816406 Z M 24.546875 25.914062 L 23.605469 23.324219 C 23.464844 22.929688 23.046875 22.726562 22.679688 22.722656 C 22.335938 22.71875 21.949219 22.972656 21.808594 23.371094 L 20.179688 27.984375 C 21.753906 28.269531 23.703125 27.113281 24.546875 25.914062 Z M 25.554688 28.6875 C 25.355469 28.09375 25.183594 27.617188 24.882812 27.042969 C 23.785156 28.15625 22.472656 28.800781 20.960938 29.082031 C 22.253906 29.941406 24.449219 29.488281 25.554688 28.6875 Z M 25.554688 28.6875 " fill-opacity="1" fill-rule="nonzero"/><path fill="#545454" d="M 23.964844 19.179688 C 23.679688 19.671875 23.210938 19.875 22.808594 19.917969 C 20.339844 20.011719 20.328125 15.144531 22.667969 14.976562 C 24.515625 15.136719 24.8125 17.8125 23.964844 19.179688 Z M 23.191406 16.277344 C 22.214844 15.125 21.375 17.507812 22.246094 18.679688 C 23.160156 19.597656 23.917969 17.625 23.191406 16.277344 Z M 23.191406 16.277344 " fill-opacity="1" fill-rule="nonzero"/><path fill="#545454" d="M 24.234375 20.117188 C 24.886719 20.121094 24.886719 21.109375 24.234375 21.113281 C 23.585938 21.109375 23.585938 20.121094 24.234375 20.117188 Z M 24.234375 20.117188 " fill-opacity="1" fill-rule="nonzero"/><path fill="#545454" d="M 21.21875 20.132812 C 21.863281 20.136719 21.863281 21.117188 21.21875 21.121094 C 20.574219 21.117188 20.574219 20.136719 21.21875 20.132812 Z M 21.21875 20.132812 " fill-opacity="1" fill-rule="nonzero"/><path fill="#545454" d="M 22.707031 13.195312 C 23.359375 13.199219 23.359375 14.191406 22.707031 14.195312 C 22.050781 14.191406 22.050781 13.199219 22.707031 13.195312 Z M 22.707031 13.195312 " fill-opacity="1" fill-rule="nonzero"/><path fill="#545454" d="M 20.1875 15.734375 C 20.820312 15.738281 20.820312 16.699219 20.1875 16.703125 C 19.554688 16.699219 19.554688 15.738281 20.1875 15.734375 Z M 20.1875 15.734375 " fill-opacity="1" fill-rule="nonzero"/><path fill="#545454" d="M 25.234375 15.71875 C 25.878906 15.722656 25.878906 16.699219 25.234375 16.703125 C 24.589844 16.699219 24.589844 15.722656 25.234375 15.71875 Z M 25.234375 15.71875 " fill-opacity="1" fill-rule="nonzero"/></svg>