<svg xmlns="http://www.w3.org/2000/svg" xmlns:xlink="http://www.w3.org/1999/xlink" width="48" zoomAndPan="magnify" viewBox="0 0 36 36.000001" height="48" preserveAspectRatio="xMidYMid meet" version="1.0"><defs><clipPath id="7c3dc2542e"><path d="M 1.664062 16 L 20 16 L 20 34.128906 L 1.664062 34.128906 Z M 1.664062 16 " clip-rule="nonzero"/></clipPath><clipPath id="27d0439821"><path d="M 20 16 L 34.5 16 L 34.5 33 L 20 33 Z M 20 16 " clip-rule="nonzero"/></clipPath><clipPath id="14f04ffa06"><path d="M 2 0.558594 L 20 0.558594 L 20 14 L 2 14 Z M 2 0.558594 " clip-rule="nonzero"/></clipPath></defs><g clip-path="url(#7c3dc2542e)"><path fill="#545454" d="M 6.320312 34.441406 C 5.714844 34.441406 5.125 34.328125 4.570312 34.101562 C 3.992188 33.867188 3.472656 33.527344 3.027344 33.082031 C 2.582031 32.640625 2.238281 32.125 2.003906 31.542969 C 1.777344 30.984375 1.664062 30.394531 1.664062 29.789062 C 1.664062 29.175781 1.777344 28.578125 2.003906 28.011719 C 2.242188 27.425781 2.589844 26.902344 3.035156 26.453125 L 12.535156 16.957031 C 12.742188 16.746094 13.023438 16.632812 13.316406 16.632812 C 13.613281 16.632812 13.894531 16.746094 14.101562 16.957031 C 14.636719 17.488281 15.5 17.488281 16.03125 16.957031 L 16.613281 16.375 L 17.773438 17.539062 L 17.195312 18.117188 C 16.625 18.6875 15.871094 19 15.066406 19 C 14.445312 19 13.851562 18.8125 13.351562 18.460938 L 4.199219 27.617188 C 3.621094 28.191406 3.304688 28.960938 3.308594 29.785156 C 3.308594 30.597656 3.621094 31.355469 4.1875 31.917969 C 4.757812 32.484375 5.515625 32.796875 6.320312 32.796875 C 7.125 32.796875 7.886719 32.484375 8.457031 31.910156 L 17.628906 22.742188 C 17.28125 22.242188 17.09375 21.648438 17.09375 21.023438 C 17.09375 20.222656 17.40625 19.464844 17.972656 18.898438 L 18.554688 18.316406 L 19.714844 19.480469 L 19.136719 20.058594 C 18.601562 20.589844 18.601562 21.457031 19.136719 21.988281 C 19.566406 22.421875 19.566406 23.125 19.136719 23.558594 L 9.621094 33.074219 C 9.175781 33.519531 8.65625 33.863281 8.074219 34.097656 C 7.515625 34.324219 6.925781 34.441406 6.320312 34.441406 Z M 6.320312 34.441406 " fill-opacity="1" fill-rule="nonzero"/></g><path fill="#545454" d="M 14.757812 20.339844 L 15.917969 19.179688 L 19.136719 22.394531 L 17.972656 23.558594 Z M 14.757812 20.339844 " fill-opacity="1" fill-rule="nonzero"/><path fill="#545454" d="M 3.09375 27.4375 L 4.257812 26.273438 L 9.816406 31.835938 L 8.65625 32.996094 Z M 3.09375 27.4375 " fill-opacity="1" fill-rule="nonzero"/><path fill="#545454" d="M 15.160156 16.417969 L 16.324219 15.253906 L 20.773438 19.703125 L 19.609375 20.867188 Z M 15.160156 16.417969 " fill-opacity="1" fill-rule="nonzero"/><path fill="#545454" d="M 6.988281 26.152344 L 12.351562 20.789062 L 13.515625 21.953125 L 8.152344 27.316406 Z M 6.988281 26.152344 " fill-opacity="1" fill-rule="nonzero"/><path fill="#545454" d="M 8.867188 28.03125 L 14.230469 22.667969 L 15.390625 23.828125 L 10.027344 29.191406 Z M 8.867188 28.03125 " fill-opacity="1" fill-rule="nonzero"/><path fill="#545454" d="M 28.921875 10.699219 C 28.644531 10.699219 28.382812 10.589844 28.1875 10.398438 L 25.695312 7.90625 C 25.488281 7.695312 25.375 7.410156 25.394531 7.113281 C 25.410156 6.820312 25.550781 6.542969 25.785156 6.359375 L 29.039062 3.769531 C 29.453125 3.441406 30.046875 3.472656 30.421875 3.847656 L 32.246094 5.671875 C 32.617188 6.046875 32.652344 6.640625 32.324219 7.050781 L 29.730469 10.308594 C 29.546875 10.539062 29.273438 10.683594 28.980469 10.699219 C 28.960938 10.699219 28.941406 10.699219 28.921875 10.699219 Z M 27.335938 7.222656 L 28.867188 8.753906 L 30.699219 6.453125 L 29.640625 5.390625 Z M 27.335938 7.222656 " fill-opacity="1" fill-rule="nonzero"/><path fill="#545454" d="M 18.550781 16.382812 L 26.941406 7.988281 L 28.101562 9.152344 L 19.710938 17.542969 Z M 18.550781 16.382812 " fill-opacity="1" fill-rule="nonzero"/><path fill="#545454" d="M 28.941406 29.675781 L 25.589844 28.78125 L 24.691406 25.429688 L 27.144531 22.976562 L 30.496094 23.875 L 31.394531 27.222656 Z M 26.933594 27.4375 L 28.449219 27.84375 L 29.5625 26.734375 L 29.15625 25.214844 L 27.636719 24.808594 L 26.527344 25.917969 Z M 26.933594 27.4375 " fill-opacity="1" fill-rule="nonzero"/><path fill="#545454" d="M 9.71875 12.769531 L 10.882812 11.605469 L 14.128906 14.851562 L 12.964844 16.011719 Z M 9.71875 12.769531 " fill-opacity="1" fill-rule="nonzero"/><g clip-path="url(#27d0439821)"><path fill="#545454" d="M 28.140625 32.609375 C 26.554688 32.609375 24.96875 32.003906 23.761719 30.792969 C 22.273438 29.304688 21.65625 27.175781 22.089844 25.136719 L 20.035156 23.085938 L 21.199219 21.921875 L 23.929688 24.652344 L 23.789062 25.121094 C 23.308594 26.722656 23.746094 28.449219 24.925781 29.632812 C 26.691406 31.40625 29.574219 31.410156 31.347656 29.644531 C 32.210938 28.785156 32.683594 27.644531 32.6875 26.429688 C 32.6875 25.214844 32.214844 24.070312 31.355469 23.210938 C 30.171875 22.03125 28.441406 21.59375 26.839844 22.070312 L 26.371094 22.210938 L 21.40625 17.246094 L 22.570312 16.085938 L 26.855469 20.371094 C 28.894531 19.9375 31.027344 20.558594 32.515625 22.050781 C 33.109375 22.640625 33.566406 23.332031 33.878906 24.097656 C 34.175781 24.84375 34.328125 25.625 34.328125 26.429688 C 34.328125 27.234375 34.175781 28.019531 33.871094 28.761719 C 33.558594 29.527344 33.101562 30.21875 32.507812 30.808594 C 31.304688 32.007812 29.722656 32.609375 28.140625 32.609375 Z M 28.140625 32.609375 " fill-opacity="1" fill-rule="nonzero"/></g><g clip-path="url(#14f04ffa06)"><path fill="#545454" d="M 17.984375 13.824219 L 12.8125 8.65625 L 12.953125 8.1875 C 13.433594 6.582031 12.996094 4.851562 11.8125 3.667969 C 10.800781 2.65625 9.402344 2.199219 8.03125 2.371094 L 9.960938 4.296875 C 10.484375 4.824219 10.773438 5.523438 10.773438 6.265625 C 10.773438 7.007812 10.484375 7.707031 9.960938 8.230469 C 9.433594 8.757812 8.734375 9.046875 7.992188 9.046875 C 7.25 9.046875 6.550781 8.757812 6.027344 8.230469 L 4.089844 6.296875 C 3.910156 7.671875 4.367188 9.078125 5.386719 10.09375 C 6.527344 11.238281 8.183594 11.683594 9.738281 11.28125 L 11.449219 9.789062 L 12.53125 11.027344 L 10.542969 12.761719 L 10.371094 12.8125 C 8.191406 13.460938 5.835938 12.867188 4.226562 11.257812 C 3.339844 10.371094 2.746094 9.25 2.519531 8.023438 C 2.292969 6.820312 2.425781 5.59375 2.898438 4.472656 C 3.011719 4.207031 3.25 4.015625 3.535156 3.957031 C 3.820312 3.902344 4.113281 3.992188 4.316406 4.199219 L 7.1875 7.070312 C 7.402344 7.285156 7.691406 7.402344 7.992188 7.402344 C 8.296875 7.402344 8.582031 7.285156 8.796875 7.070312 C 9.011719 6.855469 9.132812 6.570312 9.132812 6.265625 C 9.132812 5.960938 9.011719 5.675781 8.796875 5.460938 L 5.929688 2.59375 C 5.722656 2.386719 5.636719 2.09375 5.691406 1.808594 C 5.746094 1.523438 5.941406 1.285156 6.210938 1.175781 C 7.328125 0.707031 8.550781 0.578125 9.75 0.800781 C 10.972656 1.03125 12.089844 1.621094 12.976562 2.507812 C 14.464844 4 15.085938 6.128906 14.652344 8.167969 L 19.144531 12.664062 Z M 17.984375 13.824219 " fill-opacity="1" fill-rule="nonzero"/></g></svg>