<svg xmlns="http://www.w3.org/2000/svg" xmlns:xlink="http://www.w3.org/1999/xlink" width="48" zoomAndPan="magnify" viewBox="0 0 36 36.000001" height="48" preserveAspectRatio="xMidYMid meet" version="1.0"><defs><clipPath id="480bfd032f"><path d="M 1.324219 0.878906 L 34.890625 0.878906 L 34.890625 34.449219 L 1.324219 34.449219 Z M 1.324219 0.878906 " clip-rule="nonzero"/></clipPath></defs><g clip-path="url(#480bfd032f)"><path fill="#545454" d="M 2.738281 0.882812 C 2.554688 0.882812 2.375 0.917969 2.203125 0.988281 C 2.035156 1.058594 1.882812 1.160156 1.753906 1.292969 C 1.621094 1.421875 1.523438 1.574219 1.453125 1.742188 C 1.382812 1.914062 1.34375 2.089844 1.34375 2.277344 L 1.34375 32.753906 C 1.34375 32.9375 1.382812 33.113281 1.453125 33.285156 C 1.523438 33.457031 1.621094 33.605469 1.753906 33.738281 C 1.882812 33.867188 2.035156 33.96875 2.203125 34.039062 C 2.375 34.109375 2.554688 34.144531 2.738281 34.144531 L 33.246094 34.144531 C 33.433594 34.144531 33.609375 34.109375 33.78125 34.039062 C 33.949219 33.96875 34.101562 33.867188 34.230469 33.738281 C 34.363281 33.605469 34.460938 33.457031 34.53125 33.285156 C 34.605469 33.113281 34.640625 32.9375 34.640625 32.753906 L 34.640625 13.707031 C 34.640625 13.277344 34.476562 12.925781 34.148438 12.648438 L 20.804688 1.21875 C 20.542969 0.996094 20.242188 0.882812 19.898438 0.882812 Z M 4.128906 3.667969 L 19.382812 3.667969 L 31.28125 13.855469 L 4.128906 13.855469 Z M 4.128906 16.640625 L 31.855469 16.640625 L 31.855469 31.359375 L 4.128906 31.359375 Z M 8.289062 21.292969 C 8.105469 21.289062 7.925781 21.324219 7.75 21.394531 C 7.578125 21.460938 7.425781 21.5625 7.292969 21.691406 C 7.160156 21.824219 7.058594 21.976562 6.984375 22.148438 C 6.914062 22.320312 6.878906 22.5 6.878906 22.683594 C 6.878906 22.871094 6.914062 23.050781 6.984375 23.222656 C 7.058594 23.394531 7.160156 23.542969 7.292969 23.675781 C 7.425781 23.804688 7.578125 23.90625 7.75 23.976562 C 7.925781 24.046875 8.105469 24.078125 8.289062 24.074219 L 11.058594 24.074219 C 11.246094 24.078125 11.425781 24.046875 11.597656 23.976562 C 11.769531 23.90625 11.921875 23.804688 12.054688 23.675781 C 12.1875 23.542969 12.289062 23.394531 12.363281 23.222656 C 12.433594 23.050781 12.46875 22.871094 12.46875 22.683594 C 12.46875 22.5 12.433594 22.320312 12.363281 22.148438 C 12.289062 21.976562 12.1875 21.824219 12.054688 21.691406 C 11.921875 21.5625 11.769531 21.460938 11.597656 21.394531 C 11.425781 21.324219 11.246094 21.289062 11.058594 21.292969 Z M 8.289062 21.292969 " fill-opacity="1" fill-rule="nonzero"/></g></svg>