<svg xmlns="http://www.w3.org/2000/svg" xmlns:xlink="http://www.w3.org/1999/xlink" width="48" zoomAndPan="magnify" viewBox="0 0 36 36.000001" height="48" preserveAspectRatio="xMidYMid meet" version="1.0"><defs><clipPath id="eb0c118147"><path d="M 0.488281 3.503906 L 35.511719 3.503906 L 35.511719 30.503906 L 0.488281 30.503906 Z M 0.488281 3.503906 " clip-rule="nonzero"/></clipPath></defs><g clip-path="url(#eb0c118147)"><path fill="#545454" d="M 14.480469 7.476562 C 14.480469 6.539062 14.472656 5.699219 14.484375 4.855469 C 14.496094 4 14.925781 3.53125 15.777344 3.519531 C 17.589844 3.496094 19.402344 3.5 21.210938 3.515625 C 22.113281 3.527344 22.539062 3.980469 22.550781 4.882812 C 22.558594 5.722656 22.550781 6.5625 22.550781 7.476562 C 24.132812 7.476562 25.632812 7.464844 27.128906 7.476562 C 30.128906 7.5 29.257812 7.1875 31.367188 9.1875 C 32.542969 10.308594 33.679688 11.464844 34.855469 12.585938 C 35.300781 13.003906 35.496094 13.476562 35.492188 14.082031 C 35.476562 16.011719 35.523438 17.941406 35.457031 19.871094 C 35.441406 20.355469 35.199219 20.929688 34.871094 21.296875 C 33.761719 22.542969 32.589844 23.734375 31.394531 24.902344 C 30.90625 25.378906 30.628906 25.863281 30.71875 26.554688 C 30.765625 26.945312 30.726562 27.34375 30.726562 27.800781 C 31.921875 27.800781 33.046875 27.796875 34.167969 27.804688 C 35.179688 27.808594 35.484375 28.132812 35.484375 29.183594 C 35.488281 30.25 35.191406 30.589844 34.195312 30.589844 C 25.398438 30.597656 16.597656 30.597656 7.800781 30.59375 C 6.765625 30.59375 6.46875 30.257812 6.476562 29.144531 C 6.484375 28.117188 6.796875 27.804688 7.832031 27.804688 C 8.933594 27.800781 10.035156 27.800781 11.1875 27.800781 L 11.1875 26.101562 C 10.171875 26.101562 9.167969 26.101562 8.164062 26.101562 C 6.921875 26.097656 6.484375 25.652344 6.476562 24.390625 C 6.472656 23.480469 6.476562 22.566406 6.476562 21.667969 C 4.421875 21.3125 4.421875 21.3125 4.039062 18.617188 C 3.339844 18.617188 2.621094 18.625 1.902344 18.613281 C 1.039062 18.605469 0.554688 18.136719 0.515625 17.277344 C 0.503906 16.949219 0.5 16.621094 0.519531 16.292969 C 0.558594 15.460938 1.078125 14.953125 1.917969 14.933594 C 2.621094 14.921875 3.324219 14.933594 4.125 14.933594 C 3.964844 13.210938 4.300781 11.867188 6.476562 12 L 6.476562 10.1875 C 6.476562 7.542969 6.542969 7.476562 9.226562 7.476562 Z M 27.507812 25.105469 C 28.027344 25.105469 28.476562 25.066406 28.917969 25.113281 C 29.558594 25.1875 30.011719 24.960938 30.449219 24.484375 C 31.628906 23.207031 32.875 21.988281 34.058594 20.714844 C 34.289062 20.46875 34.460938 20.070312 34.46875 19.738281 C 34.507812 17.878906 34.507812 16.023438 34.46875 14.164062 C 34.460938 13.855469 34.296875 13.476562 34.078125 13.253906 C 32.757812 11.914062 31.339844 10.667969 30.074219 9.277344 C 29.324219 8.449219 28.503906 8.394531 27.507812 8.539062 Z M 9.945312 8.480469 C 9.355469 8.480469 8.839844 8.519531 8.332031 8.472656 C 7.625 8.402344 7.460938 8.710938 7.464844 9.367188 C 7.484375 14.328125 7.476562 19.285156 7.476562 24.246094 C 7.476562 24.410156 7.441406 24.59375 7.503906 24.734375 C 7.566406 24.878906 7.722656 25.078125 7.847656 25.085938 C 8.539062 25.117188 9.234375 25.101562 9.945312 25.101562 Z M 10.980469 16.285156 L 26.429688 16.285156 L 26.429688 14 L 10.980469 14 Z M 26.429688 20.644531 L 11.007812 20.644531 L 11.007812 22.929688 L 26.429688 22.929688 Z M 10.992188 19.535156 L 26.421875 19.535156 L 26.421875 17.367188 L 10.992188 17.367188 Z M 11 10.679688 L 11 12.898438 L 26.429688 12.898438 L 26.429688 10.683594 C 25.148438 10.683594 23.910156 10.679688 22.667969 10.691406 C 22.550781 10.695312 22.441406 10.824219 22.320312 10.875 C 21.878906 11.050781 21.441406 11.34375 20.996094 11.363281 C 19.492188 11.425781 17.988281 11.382812 16.484375 11.390625 C 15.796875 11.394531 15.109375 11.4375 14.625 10.792969 C 14.5625 10.707031 14.375 10.6875 14.246094 10.683594 C 13.1875 10.675781 12.132812 10.679688 11 10.679688 Z M 29.714844 26.15625 L 12.273438 26.15625 L 12.273438 27.746094 L 29.714844 27.746094 Z M 21.554688 4.515625 C 19.589844 4.515625 17.734375 4.503906 15.882812 4.535156 C 15.746094 4.535156 15.496094 4.800781 15.492188 4.949219 C 15.464844 6.617188 15.464844 8.285156 15.496094 9.957031 C 15.496094 10.101562 15.753906 10.367188 15.894531 10.367188 C 17.632812 10.398438 19.371094 10.398438 21.113281 10.371094 C 21.261719 10.367188 21.535156 10.121094 21.535156 9.980469 C 21.566406 8.199219 21.554688 6.414062 21.554688 4.515625 Z M 7.570312 28.816406 C 7.300781 29.554688 7.683594 29.601562 8.210938 29.597656 C 16.726562 29.589844 25.238281 29.589844 33.753906 29.59375 L 34.492188 29.59375 C 34.464844 29.261719 34.445312 29.042969 34.425781 28.816406 Z M 26.433594 24.015625 L 10.988281 24.015625 L 10.988281 25.054688 L 26.46875 25.054688 C 26.46875 24.792969 26.472656 24.585938 26.464844 24.375 C 26.464844 24.265625 26.449219 24.152344 26.433594 24.015625 Z M 6.445312 13.082031 C 5.375 12.953125 5.125 13.15625 5.121094 14.117188 C 5.117188 15.902344 5.117188 17.6875 5.121094 19.472656 C 5.125 20.488281 5.382812 20.6875 6.445312 20.492188 Z M 26.433594 8.539062 L 22.601562 8.539062 L 22.601562 9.628906 L 26.433594 9.628906 Z M 4.082031 15.925781 C 3.441406 15.925781 2.859375 15.902344 2.28125 15.9375 C 2.03125 15.953125 1.601562 16.058594 1.582031 16.179688 C 1.503906 16.601562 1.5625 17.050781 1.597656 17.484375 C 1.601562 17.539062 1.789062 17.609375 1.890625 17.613281 C 2.609375 17.621094 3.324219 17.617188 4.082031 17.617188 Z M 14.445312 8.523438 L 11.015625 8.523438 L 11.015625 9.632812 L 14.445312 9.632812 Z M 14.445312 8.523438 " fill-opacity="1" fill-rule="nonzero"/></g><path fill="#545454" d="M 18.582031 6.808594 C 18.941406 6.910156 19.304688 7.003906 19.65625 7.125 C 20.136719 7.292969 20.226562 7.628906 19.898438 7.988281 C 19.347656 8.597656 18.765625 9.1875 18.148438 9.726562 C 18.003906 9.851562 17.664062 9.753906 17.414062 9.761719 C 17.441406 9.507812 17.378906 9.183594 17.515625 9.023438 C 17.828125 8.648438 18.234375 8.355469 18.730469 7.917969 C 18.15625 7.753906 17.773438 7.667969 17.410156 7.539062 C 16.917969 7.367188 16.8125 7.007812 17.164062 6.621094 C 17.621094 6.117188 18.097656 5.621094 18.617188 5.183594 C 18.773438 5.050781 19.105469 5.121094 19.355469 5.097656 C 19.328125 5.363281 19.394531 5.707031 19.253906 5.882812 C 19.03125 6.164062 18.667969 6.332031 18.363281 6.546875 Z M 18.582031 6.808594 " fill-opacity="1" fill-rule="nonzero"/></svg>