<svg xmlns="http://www.w3.org/2000/svg" xmlns:xlink="http://www.w3.org/1999/xlink" width="48" zoomAndPan="magnify" viewBox="0 0 36 36.000001" height="48" preserveAspectRatio="xMidYMid meet" version="1.0"><defs><clipPath id="14a7a50789"><path d="M 2.238281 29 L 33.617188 29 L 33.617188 33.804688 L 2.238281 33.804688 Z M 2.238281 29 " clip-rule="nonzero"/></clipPath><clipPath id="337cb7e3f4"><path d="M 3 19 L 33.617188 19 L 33.617188 24 L 3 24 Z M 3 19 " clip-rule="nonzero"/></clipPath><clipPath id="0156afa76b"><path d="M 7 0.964844 L 30 0.964844 L 30 9 L 7 9 Z M 7 0.964844 " clip-rule="nonzero"/></clipPath><clipPath id="0a965aac45"><path d="M 28 5 L 33.617188 5 L 33.617188 9 L 28 9 Z M 28 5 " clip-rule="nonzero"/></clipPath></defs><g clip-path="url(#14a7a50789)"><path fill="#545454" d="M 32.628906 34.050781 L 2.761719 34.050781 C 2.238281 34.050781 2.375 33.296875 2.375 32.636719 C 2.375 31.066406 3.671875 29.769531 5.242188 29.769531 L 30.148438 29.769531 C 31.738281 29.769531 33.015625 31.066406 33.015625 32.636719 C 33.015625 33.296875 33.152344 34.050781 32.628906 34.050781 Z M 3.148438 33.277344 L 32.242188 33.277344 L 32.242188 32.636719 C 32.242188 31.492188 31.292969 30.542969 30.148438 30.542969 L 5.242188 30.542969 C 4.097656 30.542969 3.148438 31.492188 3.148438 32.636719 Z M 3.148438 33.277344 " fill-opacity="1" fill-rule="evenodd"/></g><g clip-path="url(#337cb7e3f4)"><path fill="#545454" d="M 32.609375 23.566406 L 4.234375 23.566406 C 3.613281 23.566406 3.109375 23.0625 3.109375 22.441406 L 3.109375 20.425781 C 3.109375 19.804688 3.613281 19.300781 4.234375 19.300781 L 32.609375 19.300781 C 33.230469 19.300781 33.734375 19.804688 33.734375 20.425781 L 33.734375 22.441406 C 33.734375 23.0625 33.230469 23.566406 32.609375 23.566406 Z M 4.234375 20.078125 C 4.039062 20.078125 3.886719 20.234375 3.886719 20.425781 L 3.886719 22.441406 C 3.886719 22.636719 4.039062 22.792969 4.234375 22.792969 L 32.609375 22.792969 C 32.804688 22.792969 32.957031 22.636719 32.957031 22.441406 L 32.957031 20.425781 C 32.957031 20.253906 32.804688 20.078125 32.609375 20.078125 Z M 4.234375 20.078125 " fill-opacity="1" fill-rule="evenodd"/></g><path fill="#545454" d="M 23.75 30.5625 C 23.675781 30.5625 23.617188 30.542969 23.558594 30.503906 L 11.464844 23.527344 C 11.019531 23.277344 11.40625 22.597656 11.851562 22.847656 L 23.945312 29.828125 C 24.273438 30.019531 24.140625 30.5625 23.75 30.5625 Z M 23.75 30.5625 " fill-opacity="1" fill-rule="evenodd"/><path fill="#545454" d="M 11.65625 30.5625 C 11.25 30.5625 11.113281 30.039062 11.464844 29.828125 L 23.558594 22.847656 C 24.003906 22.597656 24.390625 23.257812 23.945312 23.527344 L 11.851562 30.503906 C 11.773438 30.542969 11.714844 30.5625 11.65625 30.5625 Z M 11.65625 30.5625 " fill-opacity="1" fill-rule="evenodd"/><path fill="#545454" d="M 26.96875 13.625 C 24.644531 13.625 24.644531 10.097656 26.96875 10.097656 C 29.296875 10.097656 29.296875 13.625 26.96875 13.625 Z M 26.96875 10.871094 C 25.671875 10.871094 25.671875 12.847656 26.96875 12.847656 C 28.269531 12.847656 28.269531 10.871094 26.96875 10.871094 Z M 26.96875 10.871094 " fill-opacity="1" fill-rule="evenodd"/><path fill="#545454" d="M 9.875 13.625 C 7.546875 13.625 7.546875 10.097656 9.875 10.097656 C 12.199219 10.097656 12.199219 13.625 9.875 13.625 Z M 9.875 10.871094 C 8.574219 10.871094 8.574219 12.847656 9.875 12.847656 C 11.171875 12.847656 11.171875 10.871094 9.875 10.871094 Z M 9.875 10.871094 " fill-opacity="1" fill-rule="evenodd"/><path fill="#545454" d="M 21.851562 13.195312 L 14.992188 13.195312 C 14.488281 13.195312 14.488281 12.421875 14.992188 12.421875 L 21.851562 12.421875 C 22.355469 12.421875 22.375 13.195312 21.851562 13.195312 Z M 21.851562 13.195312 " fill-opacity="1" fill-rule="evenodd"/><path fill="#545454" d="M 21.851562 11.316406 L 14.992188 11.316406 C 14.488281 11.316406 14.488281 10.542969 14.992188 10.542969 L 21.851562 10.542969 C 22.355469 10.542969 22.375 11.316406 21.851562 11.316406 Z M 21.851562 11.316406 " fill-opacity="1" fill-rule="evenodd"/><path fill="#545454" d="M 30.535156 15.601562 L 6.308594 15.601562 C 6.09375 15.601562 5.921875 15.425781 5.921875 15.210938 L 5.921875 10.210938 C 5.921875 9.070312 6.871094 8.117188 8.015625 8.117188 L 28.828125 8.117188 C 29.972656 8.117188 30.921875 9.070312 30.921875 10.210938 L 30.921875 15.210938 C 30.921875 15.425781 30.75 15.601562 30.535156 15.601562 Z M 6.695312 14.824219 L 30.148438 14.824219 L 30.148438 10.210938 C 30.148438 9.496094 29.546875 8.894531 28.828125 8.894531 L 8.015625 8.894531 C 7.296875 8.894531 6.695312 9.496094 6.695312 10.210938 Z M 6.695312 14.824219 " fill-opacity="1" fill-rule="evenodd"/><path fill="#545454" d="M 26.425781 8.894531 C 26.214844 8.894531 26.039062 8.71875 26.039062 8.507812 L 26.039062 6.9375 L 23.113281 6.9375 L 23.113281 8.507812 C 23.113281 9.011719 22.335938 9.011719 22.335938 8.507812 L 22.335938 6.800781 C 22.335938 6.433594 22.628906 6.160156 22.976562 6.160156 L 26.175781 6.160156 C 26.523438 6.160156 26.8125 6.433594 26.8125 6.800781 L 26.8125 8.507812 C 26.8125 8.71875 26.640625 8.894531 26.425781 8.894531 Z M 26.425781 8.894531 " fill-opacity="1" fill-rule="evenodd"/><path fill="#545454" d="M 14.390625 8.894531 C 14.175781 8.894531 14.003906 8.71875 14.003906 8.507812 C 14.003906 6.414062 10.804688 6.414062 10.804688 8.507812 C 10.804688 9.011719 10.03125 9.011719 10.03125 8.507812 C 10.03125 7.1875 11.09375 6.140625 12.394531 6.140625 C 14.546875 6.140625 15.339844 8.894531 14.390625 8.894531 Z M 14.390625 8.894531 " fill-opacity="1" fill-rule="evenodd"/><g clip-path="url(#0156afa76b)"><path fill="#545454" d="M 8.015625 8.894531 C 7.761719 8.894531 7.585938 8.660156 7.644531 8.410156 L 8.925781 2.984375 C 9.214844 1.722656 9.992188 0.96875 11 0.96875 L 25.84375 0.96875 C 26.851562 0.96875 27.628906 1.722656 27.917969 2.984375 L 29.199219 8.410156 C 29.316406 8.914062 28.558594 9.089844 28.441406 8.605469 L 27.164062 3.15625 C 27.066406 2.730469 26.738281 1.742188 25.84375 1.742188 L 11 1.742188 C 10.105469 1.742188 9.777344 2.730469 9.679688 3.15625 L 8.402344 8.605469 C 8.363281 8.777344 8.1875 8.894531 8.015625 8.894531 Z M 8.015625 8.894531 " fill-opacity="1" fill-rule="evenodd"/></g><g clip-path="url(#0a965aac45)"><path fill="#545454" d="M 31.582031 8.894531 L 28.828125 8.894531 C 28.539062 8.894531 28.363281 8.585938 28.480469 8.332031 L 29.703125 5.714844 C 29.761719 5.578125 29.894531 5.484375 30.050781 5.484375 L 31.582031 5.484375 C 33.753906 5.484375 33.734375 8.894531 31.582031 8.894531 Z M 29.429688 8.117188 L 31.5625 8.117188 C 32.707031 8.117188 32.707031 6.257812 31.5625 6.257812 L 30.285156 6.257812 Z M 29.429688 8.117188 " fill-opacity="1" fill-rule="evenodd"/></g><path fill="#545454" d="M 8.015625 8.894531 L 5.261719 8.894531 C 3.109375 8.894531 3.089844 5.484375 5.261719 5.484375 L 6.792969 5.484375 C 6.949219 5.484375 7.082031 5.578125 7.140625 5.714844 L 8.363281 8.351562 C 8.5 8.605469 8.304688 8.894531 8.015625 8.894531 Z M 5.261719 6.257812 C 4.117188 6.257812 4.117188 8.117188 5.261719 8.117188 L 7.414062 8.117188 L 6.539062 6.277344 L 5.261719 6.277344 Z M 5.261719 6.257812 " fill-opacity="1" fill-rule="evenodd"/><path fill="#545454" d="M 11.542969 20.078125 L 9.292969 20.078125 C 8.128906 20.078125 7.199219 19.148438 7.199219 17.984375 L 7.199219 15.210938 C 7.199219 14.707031 7.976562 14.707031 7.976562 15.210938 L 7.976562 17.984375 C 7.976562 18.722656 8.554688 19.300781 9.292969 19.300781 L 11.542969 19.300781 C 12.257812 19.300781 12.859375 18.722656 12.859375 17.984375 L 12.859375 15.210938 C 12.859375 14.707031 13.632812 14.707031 13.632812 15.210938 L 13.632812 17.984375 C 13.632812 19.148438 12.683594 20.078125 11.542969 20.078125 Z M 11.542969 20.078125 " fill-opacity="1" fill-rule="evenodd"/><path fill="#545454" d="M 27.550781 20.078125 L 25.300781 20.078125 C 24.160156 20.078125 23.210938 19.148438 23.210938 17.984375 L 23.210938 15.210938 C 23.210938 14.707031 23.984375 14.707031 23.984375 15.210938 L 23.984375 17.984375 C 23.984375 18.722656 24.585938 19.300781 25.300781 19.300781 L 27.550781 19.300781 C 28.269531 19.300781 28.867188 18.722656 28.867188 17.984375 L 28.867188 15.210938 C 28.867188 14.707031 29.644531 14.707031 29.644531 15.210938 L 29.644531 17.984375 C 29.644531 19.148438 28.714844 20.078125 27.550781 20.078125 Z M 27.550781 20.078125 " fill-opacity="1" fill-rule="evenodd"/></svg>