<svg xmlns="http://www.w3.org/2000/svg" xmlns:xlink="http://www.w3.org/1999/xlink" width="48" zoomAndPan="magnify" viewBox="0 0 36 36.000001" height="48" preserveAspectRatio="xMidYMid meet" version="1.0"><defs><clipPath id="4f6fd67aaf"><path d="M 1.71875 6.117188 L 34.554688 6.117188 L 34.554688 28.738281 L 1.71875 28.738281 Z M 1.71875 6.117188 " clip-rule="nonzero"/></clipPath></defs><g clip-path="url(#4f6fd67aaf)"><path fill="#545454" d="M 31.46875 13.203125 C 32.332031 13.160156 33.609375 13.273438 34.085938 12.378906 C 34.386719 11.808594 34.375 10.695312 33.652344 10.464844 C 33.273438 10.34375 31.539062 10.359375 31.074219 10.398438 C 30.085938 10.484375 30.464844 11.582031 30.417969 12.253906 C 29.753906 11.347656 29.238281 10.332031 28.644531 9.375 C 28.128906 8.542969 27.367188 7.113281 26.539062 6.621094 C 25.453125 5.972656 23.675781 6.179688 22.429688 6.160156 C 19.617188 6.117188 16.800781 6.125 13.988281 6.160156 C 12.207031 6.183594 9.996094 5.761719 8.738281 7.253906 C 7.59375 8.609375 6.796875 10.53125 5.789062 12.003906 C 5.726562 12.09375 5.671875 12.203125 5.566406 12.253906 L 5.566406 10.832031 C 5.566406 10.78125 5.378906 10.546875 5.316406 10.507812 C 5.234375 10.453125 5.105469 10.417969 5.007812 10.40625 C 4.476562 10.34375 3.117188 10.34375 2.585938 10.40625 C 1.589844 10.519531 1.511719 11.957031 2.046875 12.585938 C 2.640625 13.285156 3.679688 13.125 4.496094 13.222656 C 3.5 14.390625 2.296875 15.679688 1.957031 17.230469 C 1.761719 18.113281 1.859375 18.855469 1.863281 19.726562 C 1.867188 20.878906 1.875 22.035156 1.863281 23.1875 C 1.859375 23.398438 1.800781 23.609375 1.816406 23.847656 C 1.851562 24.3125 2.003906 24.65625 2.238281 24.917969 C 2.238281 24.917969 2.242188 24.917969 2.242188 24.917969 C 2.367188 25.0625 2.523438 25.183594 2.695312 25.285156 C 2.65625 25.363281 2.636719 25.453125 2.636719 25.546875 L 2.636719 28.277344 C 2.636719 28.625 2.917969 28.902344 3.265625 28.902344 L 8.914062 28.902344 C 9.257812 28.902344 9.539062 28.625 9.539062 28.277344 L 9.539062 26.050781 L 26.449219 26.050781 L 26.449219 28.277344 C 26.449219 28.625 26.730469 28.902344 27.078125 28.902344 L 32.726562 28.902344 C 33.074219 28.902344 33.351562 28.625 33.351562 28.277344 L 33.351562 25.546875 C 33.351562 25.453125 33.332031 25.367188 33.296875 25.289062 C 33.691406 25.054688 33.988281 24.734375 34.09375 24.289062 C 34.089844 22.238281 34.277344 20 34.148438 17.957031 C 34.027344 16.078125 32.660156 14.535156 31.46875 13.203125 Z M 28.734375 22.589844 L 31.320312 22.054688 C 31.746094 21.96875 32.160156 22.242188 32.246094 22.664062 L 32.269531 22.777344 C 32.355469 23.199219 32.085938 23.613281 31.660156 23.699219 L 29.074219 24.234375 C 28.648438 24.320312 28.234375 24.050781 28.148438 23.625 L 28.125 23.515625 C 28.039062 23.089844 28.3125 22.675781 28.734375 22.589844 Z M 32.363281 17.0625 C 32.625 19.078125 28.847656 20.234375 27.496094 19.128906 C 25.507812 17.507812 28.066406 15.386719 29.8125 15.191406 C 31.039062 15.050781 32.199219 15.792969 32.363281 17.0625 Z M 7.996094 9.914062 L 8.960938 8.230469 C 9.402344 7.460938 10.21875 6.988281 11.105469 6.988281 L 24.875 6.988281 C 25.742188 6.988281 26.546875 7.445312 26.996094 8.191406 L 27.488281 9.011719 C 27.925781 9.6875 28.382812 10.46875 28.757812 11.132812 L 29.574219 12.5 L 6.511719 12.5 C 6.996094 11.632812 7.480469 10.765625 7.996094 9.914062 Z M 5.722656 15.148438 C 7.226562 15.113281 9.75 16.589844 9.074219 18.378906 C 8.359375 20.261719 5.433594 19.585938 4.25 18.578125 C 2.824219 17.367188 4.054688 15.183594 5.722656 15.148438 Z M 3.648438 22.777344 L 3.671875 22.664062 C 3.761719 22.242188 4.175781 21.96875 4.597656 22.054688 L 7.183594 22.589844 C 7.609375 22.675781 7.882812 23.089844 7.792969 23.515625 L 7.769531 23.625 C 7.683594 24.050781 7.269531 24.320312 6.847656 24.234375 L 4.257812 23.699219 C 3.835938 23.613281 3.5625 23.199219 3.648438 22.777344 Z M 24.238281 24.359375 C 20.363281 24.425781 16.46875 24.40625 12.589844 24.359375 C 11.625 24.347656 10.570312 24.425781 9.621094 24.363281 C 8.199219 24.273438 8.777344 23.359375 9.394531 22.652344 C 10.25 21.671875 11.207031 21.675781 12.421875 21.640625 C 13.230469 21.617188 14.058594 21.625 14.863281 21.613281 C 17.875 21.574219 20.910156 21.5625 23.910156 21.6875 C 24.875 21.726562 25.523438 21.652344 26.300781 22.34375 C 26.601562 22.609375 27.316406 23.511719 27.261719 23.917969 C 27.203125 24.320312 26.625 24.34375 26.300781 24.363281 C 25.636719 24.402344 24.914062 24.347656 24.238281 24.359375 Z M 24.238281 24.359375 " fill-opacity="1" fill-rule="nonzero"/></g></svg>