<svg xmlns="http://www.w3.org/2000/svg" xmlns:xlink="http://www.w3.org/1999/xlink" width="48" zoomAndPan="magnify" viewBox="0 0 36 36.000001" height="48" preserveAspectRatio="xMidYMid meet" version="1.0"><defs><clipPath id="d1d728a3d6"><path d="M 1.121094 0 L 34.6875 0 L 34.6875 35.027344 L 1.121094 35.027344 Z M 1.121094 0 " clip-rule="nonzero"/></clipPath></defs><g clip-path="url(#d1d728a3d6)"><path fill="#545454" d="M 4.890625 6.703125 L 8.863281 6.703125 L 8.863281 35.011719 L 4.890625 35.011719 Z M 32.265625 2.972656 C 32.496094 3.109375 32.753906 3.136719 32.996094 3.066406 C 33.238281 3.007812 33.453125 2.851562 33.582031 2.621094 L 33.597656 2.601562 C 33.71875 2.378906 33.738281 2.121094 33.675781 1.898438 C 33.617188 1.65625 33.460938 1.441406 33.226562 1.3125 L 33.203125 1.292969 C 32.980469 1.175781 32.730469 1.15625 32.496094 1.21875 C 32.265625 1.277344 32.046875 1.433594 31.910156 1.664062 C 31.78125 1.898438 31.757812 2.15625 31.816406 2.398438 C 31.886719 2.628906 32.039062 2.84375 32.265625 2.972656 Z M 26.648438 14.753906 L 25.039062 17.542969 L 26.359375 18.300781 L 25.296875 20.125 C 25.003906 20.632812 24.472656 20.917969 23.921875 20.925781 C 23.914062 21.261719 23.816406 21.605469 23.636719 21.914062 C 23.628906 21.933594 23.621094 21.941406 23.609375 21.957031 C 23.316406 22.441406 22.851562 22.777344 22.34375 22.914062 C 21.820312 23.050781 21.242188 22.992188 20.734375 22.699219 C 20.71875 22.691406 20.710938 22.683594 20.691406 22.671875 C 20.210938 22.378906 19.882812 21.914062 19.746094 21.40625 C 19.597656 20.882812 19.660156 20.304688 19.953125 19.789062 C 19.960938 19.78125 19.96875 19.773438 19.976562 19.753906 C 20.125 19.511719 20.3125 19.316406 20.519531 19.152344 C 20.011719 18.652344 19.882812 17.851562 20.253906 17.214844 L 21.3125 15.390625 L 22.621094 16.148438 L 23.421875 14.753906 L 22.84375 14.753906 C 22.515625 14.753906 22.257812 14.492188 22.257812 14.175781 C 22.257812 13.847656 22.515625 13.589844 22.84375 13.589844 L 28.320312 13.589844 C 28.640625 13.589844 28.898438 13.847656 28.898438 14.175781 C 28.898438 14.492188 28.640625 14.753906 28.320312 14.753906 Z M 24.28125 12.382812 C 23.957031 12.382812 23.695312 12.125 23.695312 11.808594 C 23.695312 11.480469 23.957031 11.222656 24.28125 11.222656 L 29.757812 11.222656 C 30.078125 11.222656 30.34375 11.480469 30.34375 11.808594 C 30.34375 12.125 30.078125 12.382812 29.757812 12.382812 L 28.304688 12.382812 L 28.132812 12.675781 L 24.902344 12.675781 L 25.074219 12.382812 Z M 25.71875 10.015625 C 25.402344 10.015625 25.136719 9.757812 25.136719 9.441406 C 25.136719 9.113281 25.402344 8.855469 25.71875 8.855469 L 31.195312 8.855469 C 31.523438 8.855469 31.78125 9.113281 31.78125 9.441406 C 31.78125 9.757812 31.523438 10.015625 31.195312 10.015625 L 29.664062 10.015625 L 29.5 10.316406 L 26.269531 10.316406 L 26.433594 10.015625 Z M 22.722656 20.605469 C 22.664062 20.382812 22.527344 20.175781 22.320312 20.046875 C 22.292969 20.03125 22.269531 20.023438 22.242188 20.003906 C 22.019531 19.882812 21.777344 19.867188 21.542969 19.925781 C 21.320312 19.988281 21.113281 20.125 20.984375 20.339844 C 20.976562 20.355469 20.957031 20.382812 20.949219 20.402344 C 20.828125 20.625 20.804688 20.875 20.863281 21.105469 C 20.933594 21.339844 21.070312 21.546875 21.285156 21.675781 L 21.3125 21.691406 C 21.542969 21.820312 21.8125 21.847656 22.042969 21.785156 C 22.277344 21.726562 22.484375 21.578125 22.613281 21.363281 L 22.628906 21.339844 C 22.757812 21.105469 22.792969 20.847656 22.722656 20.605469 Z M 27.632812 7.949219 L 30.859375 7.949219 L 31.195312 7.375 L 32.503906 8.132812 L 33.589844 6.253906 C 34.011719 5.53125 34.082031 4.703125 33.855469 3.953125 C 34.140625 3.78125 34.382812 3.550781 34.5625 3.25 C 34.589844 3.214844 34.605469 3.1875 34.613281 3.15625 C 34.882812 2.65625 34.933594 2.09375 34.804688 1.597656 C 34.667969 1.078125 34.339844 0.621094 33.855469 0.332031 C 33.824219 0.304688 33.789062 0.289062 33.753906 0.269531 C 33.261719 0.00390625 32.703125 -0.046875 32.195312 0.0898438 C 31.6875 0.226562 31.230469 0.554688 30.929688 1.035156 C 30.914062 1.0625 30.894531 1.097656 30.886719 1.121094 C 30.738281 1.378906 30.664062 1.648438 30.636719 1.914062 C 29.785156 2.042969 29.007812 2.542969 28.542969 3.335938 L 27.460938 5.21875 L 28.777344 5.976562 Z M 15.613281 19.179688 L 18.960938 19.179688 L 18.945312 19.210938 C 18.503906 19.960938 18.394531 20.867188 18.617188 21.710938 C 18.695312 22 18.816406 22.277344 18.960938 22.535156 L 15.613281 22.535156 L 15.613281 23.84375 C 15.613281 24.644531 14.957031 25.289062 14.164062 25.289062 L 13.804688 25.289062 L 13.804688 16.421875 L 14.164062 16.421875 C 14.957031 16.421875 15.613281 17.066406 15.613281 17.867188 Z M 10.03125 6.710938 C 11.480469 6.8125 12.632812 8.027344 12.632812 9.5 L 12.632812 13.832031 L 11.265625 12.460938 C 11.03125 12.238281 10.660156 12.238281 10.4375 12.460938 C 10.214844 12.6875 10.214844 13.054688 10.4375 13.289062 L 12.632812 15.484375 L 12.632812 21.261719 L 11.265625 19.882812 C 11.03125 19.660156 10.660156 19.660156 10.4375 19.882812 C 10.214844 20.117188 10.214844 20.488281 10.4375 20.710938 L 12.632812 22.90625 L 12.632812 28.683594 L 11.265625 27.316406 C 11.03125 27.082031 10.660156 27.082031 10.4375 27.316406 C 10.214844 27.539062 10.214844 27.910156 10.4375 28.140625 L 12.632812 30.335938 L 12.632812 32.214844 C 12.632812 33.6875 11.480469 34.898438 10.03125 35.003906 L 10.03125 31.957031 L 10.824219 32.738281 C 11.046875 32.972656 11.417969 32.972656 11.644531 32.738281 C 11.875 32.515625 11.875 32.144531 11.644531 31.921875 L 10.03125 30.300781 L 10.03125 24.523438 L 10.824219 25.316406 C 11.046875 25.539062 11.417969 25.539062 11.640625 25.316406 C 11.875 25.09375 11.875 24.722656 11.640625 24.492188 L 10.03125 22.878906 L 10.03125 17.101562 L 10.824219 17.894531 C 11.046875 18.117188 11.417969 18.117188 11.640625 17.894531 C 11.875 17.664062 11.875 17.292969 11.640625 17.070312 L 10.03125 15.449219 L 10.03125 9.671875 L 10.824219 10.464844 C 11.046875 10.695312 11.417969 10.695312 11.640625 10.464844 C 11.875 10.242188 11.875 9.871094 11.640625 9.636719 L 10.03125 8.027344 Z M 6.296875 8.433594 C 6.296875 8.113281 6.554688 7.855469 6.882812 7.855469 C 7.199219 7.855469 7.457031 8.113281 7.457031 8.433594 L 7.457031 19.710938 C 7.457031 20.03125 7.199219 20.296875 6.882812 20.296875 C 6.554688 20.296875 6.296875 20.03125 6.296875 19.710938 Z M 6.296875 22.003906 C 6.296875 21.683594 6.554688 21.417969 6.882812 21.417969 C 7.199219 21.417969 7.457031 21.683594 7.457031 22.003906 L 7.457031 33.273438 C 7.457031 33.601562 7.199219 33.859375 6.882812 33.859375 C 6.554688 33.859375 6.296875 33.601562 6.296875 33.273438 Z M 3.722656 35.003906 C 2.273438 34.898438 1.121094 33.6875 1.121094 32.214844 L 1.121094 30.335938 L 3.316406 28.140625 C 3.550781 27.910156 3.550781 27.539062 3.316406 27.316406 C 3.09375 27.082031 2.722656 27.082031 2.488281 27.316406 L 1.121094 28.683594 L 1.121094 22.90625 L 3.316406 20.710938 C 3.550781 20.488281 3.550781 20.117188 3.316406 19.882812 C 3.09375 19.660156 2.722656 19.660156 2.488281 19.882812 L 1.121094 21.261719 L 1.121094 15.484375 L 3.316406 13.289062 C 3.550781 13.054688 3.550781 12.6875 3.316406 12.460938 C 3.09375 12.238281 2.722656 12.238281 2.488281 12.460938 L 1.121094 13.832031 L 1.121094 9.5 C 1.121094 8.027344 2.273438 6.8125 3.722656 6.710938 L 3.722656 8.027344 L 2.109375 9.636719 C 1.878906 9.871094 1.878906 10.242188 2.109375 10.464844 C 2.335938 10.695312 2.707031 10.695312 2.9375 10.464844 L 3.722656 9.671875 L 3.722656 15.449219 L 2.109375 17.066406 C 1.878906 17.292969 1.878906 17.664062 2.109375 17.894531 C 2.335938 18.117188 2.707031 18.117188 2.9375 17.894531 L 3.722656 17.101562 L 3.722656 22.878906 L 2.109375 24.492188 C 1.878906 24.722656 1.878906 25.09375 2.109375 25.316406 C 2.335938 25.539062 2.707031 25.539062 2.9375 25.316406 L 3.722656 24.523438 L 3.722656 30.300781 L 2.109375 31.921875 C 1.878906 32.144531 1.878906 32.515625 2.109375 32.738281 C 2.335938 32.972656 2.707031 32.972656 2.9375 32.738281 L 3.722656 31.957031 Z M 3.722656 35.003906 " fill-opacity="1" fill-rule="evenodd"/></g></svg>